<svg xmlns="http://www.w3.org/2000/svg" width="147" height="31" viewBox="0 0 147 31" fill="none"><g clip-path="url(#clip0_628_162)"><path d="M31.7146 2.69733L29.1101 0L26.5056 2.69733C26.1761 3.03852 25.8529 3.39902 25.5457 3.7724C25.2386 3.39902 24.9186 3.03852 24.5891 2.69733L21.9814 0L19.3737 2.69733C19.0409 3.03852 18.721 3.39902 18.4138 3.7724C18.1066 3.39902 17.7867 3.03852 17.4571 2.69733L14.8526 0L12.2481 2.69733C11.9186 3.03852 11.5954 3.39902 11.2914 3.7724C10.9843 3.39902 10.6643 3.03852 10.3316 2.69733L7.72388 0L5.11619 2.69733C-1.7054 9.7561 -1.7054 21.2439 5.11619 28.3027L7.72388 31L10.3316 28.3027C10.6611 27.9615 10.9843 27.601 11.2914 27.2276C11.5986 27.601 11.9186 27.9615 12.2481 28.3027L14.8526 31L17.4603 28.3027C17.7899 27.9615 18.113 27.601 18.417 27.2276C18.7242 27.5978 19.0441 27.9583 19.3769 28.3027L21.9846 31L24.5923 28.3027C24.9218 27.9615 25.245 27.601 25.5489 27.2276C25.8561 27.601 26.1761 27.9615 26.5088 28.3027L29.1133 31L31.721 28.3027C38.5426 21.2439 38.5426 9.7561 31.721 2.69733H31.7146ZM10.4627 26.1429C10.1172 26.5806 9.75883 26.9894 9.39408 27.366L7.72068 29.0977L6.04728 27.366C-0.275167 20.8222 -0.275167 10.1778 6.04728 3.63721L7.72068 1.90551L9.39408 3.63721C9.75563 4.01059 10.114 4.42259 10.4627 4.86035C6.03448 11.1627 6.03448 19.8437 10.4627 26.1461V26.1429ZM11.285 25.0163C7.5159 19.348 7.5159 11.652 11.285 5.9837C15.0542 11.652 15.0542 19.348 11.285 25.0163ZM17.5915 26.1429C17.2459 26.5806 16.8876 26.9894 16.526 27.366L14.8526 29.0977L13.1792 27.366C12.8177 26.9926 12.4593 26.5806 12.1138 26.1429C13.368 24.3565 14.3023 22.3222 14.8558 20.1817C15.4094 22.3222 16.3436 24.3565 17.5979 26.1429H17.5915ZM14.8494 10.8215C14.2959 8.68103 13.3648 6.64677 12.1074 4.86035C12.4529 4.42259 12.8113 4.01381 13.1728 3.63721L14.8462 1.90551L16.5196 3.63721C16.8812 4.01381 17.2395 4.42259 17.5851 4.86035C16.3308 6.64677 15.3966 8.68103 14.843 10.8215H14.8494ZM18.4138 25.0163C14.6446 19.348 14.6446 11.652 18.4138 5.9837C22.1829 11.652 22.1829 19.348 18.4138 25.0163ZM21.9782 20.1817C22.5317 22.3254 23.466 24.3597 24.7202 26.1429C24.3747 26.5806 24.0163 26.9894 23.6516 27.366L21.9782 29.0977L20.3048 27.366C19.9432 26.9926 19.5849 26.5806 19.2361 26.1429C20.4903 24.3565 21.4246 22.3222 21.9782 20.1817V20.1817ZM19.2393 4.85713C19.5849 4.41937 19.9432 4.01059 20.308 3.63399L21.9814 1.90229L23.6548 3.63399C24.0163 4.01059 24.3747 4.41937 24.7234 4.85713C23.4692 6.64355 22.5349 8.67781 21.9814 10.8183C21.4278 8.67781 20.4935 6.64033 19.2393 4.85713V4.85713ZM25.5457 25.0163C21.7766 19.348 21.7766 11.652 25.5457 5.9837C29.3149 11.652 29.3149 19.348 25.5457 25.0163ZM26.368 4.85713C26.7136 4.41937 27.072 4.01059 27.4367 3.63399L29.1101 1.90229L30.7835 3.63399C37.106 10.1778 37.106 20.8222 30.7835 27.3628L29.1101 29.0945L27.4367 27.3628C27.0752 26.9862 26.7168 26.5774 26.368 26.1397C30.7963 19.8373 30.7963 11.1563 26.368 4.85391V4.85713Z" fill="white"></path><path d="M67.7168 6.69183V11.5361C68.6543 8.77438 70.9068 6.1543 74.548 6.1543C78.9858 6.1543 80.7552 9.20569 80.7552 13.403V24.6333C79.0498 24.6333 77.6676 23.2041 77.6676 21.4402V14.1562C77.6676 10.2454 76.5573 8.092 73.8537 8.092C70.8364 8.092 67.7168 11.0694 67.7168 16.2741V24.6333C66.1266 24.6333 64.8403 23.3007 64.8403 21.6559V9.6692C64.8403 8.0244 66.1298 6.69183 67.7168 6.69183Z" fill="white"></path><path d="M97.352 15.6626C97.352 12.6144 95.9986 7.87641 91.8039 7.87641C88.0251 7.87641 86.5693 11.8934 86.5693 15.6626C86.5693 19.4318 88.0251 23.4488 91.8039 23.4488C95.9986 23.4488 97.352 18.7108 97.352 15.6626ZM83.3057 15.6626C83.3057 10.2068 86.4957 6.15437 91.3527 6.15437C94.8211 6.15437 96.7633 8.55879 97.5248 11.1435V3.18666C97.5248 1.48071 98.859 0.0998535 100.507 0.0998535V24.6333C98.859 24.6333 97.5248 23.2525 97.5248 21.5465V20.1464C96.7633 22.7278 94.8211 25.1709 91.3527 25.1709C86.4957 25.1709 83.3057 21.1506 83.3057 15.6626" fill="white"></path><path d="M124.126 3.18666C124.126 1.48071 125.46 0.0998535 127.108 0.0998535V24.6333C125.46 24.6333 124.126 23.2525 124.126 21.5465V3.18666Z" fill="white"></path><path d="M117.407 15.6626C117.407 12.6144 116.054 7.87634 111.859 7.87634C108.077 7.87634 106.656 11.8934 106.656 15.6626C106.656 19.4317 108.077 23.4488 111.859 23.4488C116.054 23.4488 117.407 18.7107 117.407 15.6626ZM103.361 15.6626C103.361 10.2067 106.551 6.1543 111.408 6.1543C114.876 6.1543 116.818 8.55872 117.58 11.1434V9.77863C117.58 8.0759 118.914 6.69183 120.562 6.69183V24.6333C118.914 24.6333 117.58 23.2524 117.58 21.5465V20.1463C116.818 22.7278 114.876 25.1708 111.408 25.1708C106.551 25.1708 103.361 21.1506 103.361 15.6626" fill="white"></path><path d="M58.8188 15.6626C58.8188 12.6144 57.4653 7.87634 53.2706 7.87634C49.4887 7.87634 48.0681 11.8934 48.0681 15.6626C48.0681 19.4317 49.4887 23.4488 53.2706 23.4488C57.4653 23.4488 58.8188 18.7107 58.8188 15.6626ZM44.7725 15.6626C44.7725 10.2067 47.9625 6.1543 52.8195 6.1543C56.2879 6.1543 58.2301 8.55872 58.9916 11.1434V9.77863C58.9916 8.0759 60.3258 6.69183 61.9736 6.69183V24.6333C60.3258 24.6333 58.9916 23.2524 58.9916 21.5465V20.1463C58.2301 22.7278 56.2879 25.1708 52.8195 25.1708C47.9625 25.1708 44.7725 21.1506 44.7725 15.6626" fill="white"></path><path d="M143.846 15.6626C143.846 12.6144 142.492 7.87634 138.297 7.87634C134.516 7.87634 133.095 11.8934 133.095 15.6626C133.095 19.4317 134.516 23.4488 138.297 23.4488C142.492 23.4488 143.846 18.7107 143.846 15.6626ZM129.799 15.6626C129.799 10.2067 132.989 6.1543 137.846 6.1543C141.315 6.1543 143.257 8.55872 144.018 11.1434V9.77863C144.018 8.0759 145.353 6.69183 147 6.69183V24.6333C145.353 24.6333 144.018 23.2524 144.018 21.5465V20.1463C143.257 22.7278 141.315 25.1708 137.846 25.1708C132.989 25.1708 129.799 21.1506 129.799 15.6626" fill="white"></path></g><defs><clipPath id="clip0_628_162"><rect width="147" height="31" fill="white"></rect></clipPath></defs></svg>