<svg xmlns="http://www.w3.org/2000/svg" width="126" height="42" viewBox="0 0 126 42" fill="none"><g clip-path="url(#clip0_1001_123)"><path d="M20.9694 39.1618C20.1179 39.281 19.2508 39.3451 18.3652 39.3451C13.8134 39.3451 9.64858 37.7106 6.4375 35.0037C9.79721 39.2626 15.0427 42.0001 20.9384 42.0001C26.8342 42.0001 31.9527 39.3237 35.3186 35.1534C32.1354 37.7686 28.0387 39.3451 23.5705 39.3451C22.688 39.3451 21.8179 39.284 20.9694 39.1618Z" fill="white" fill-opacity="0.3"></path><path d="M41.9393 21.2215C41.9393 11.2127 33.715 3.10107 23.5708 3.10107C22.6883 3.10107 21.8182 3.16523 20.9697 3.28133C25.791 3.95653 30.0084 6.47708 32.8665 10.0975C36.8084 13.4216 39.3072 18.3619 39.3072 23.8765C39.3072 28.1385 37.8147 32.0553 35.3189 35.1503C39.363 31.8262 41.9393 26.8187 41.9393 21.2185" fill="white" fill-opacity="0.3"></path><path d="M9.19353 9.94476C12.0485 6.40682 16.2164 3.94432 20.9696 3.27828C20.118 3.15913 19.251 3.09497 18.3654 3.09497C8.22433 3.09803 0 11.2127 0 21.2215C0 26.7393 2.49888 31.6795 6.44074 35.0036C4.01617 31.9331 2.5732 28.0713 2.5732 23.8796C2.5732 18.2794 5.14949 13.2749 9.19353 9.94781" fill="white" fill-opacity="0.3"></path><path d="M32.8665 10.0945C35.2911 13.165 36.734 17.0268 36.734 21.2185C36.734 30.3566 29.8815 37.9122 20.9697 39.1587C21.8213 39.2779 22.6883 39.342 23.5708 39.342C28.0391 39.342 32.1326 37.7686 35.3189 35.1503C37.8147 32.0553 39.3072 28.1386 39.3072 23.8765C39.3072 18.3588 36.8084 13.4186 32.8665 10.0975" fill="white" fill-opacity="0.75"></path><path d="M20.9696 39.1617C12.0578 37.9152 5.20527 30.3596 5.20527 21.2215C5.20527 16.9595 6.69779 13.0427 9.19358 9.94775C5.14954 13.2718 2.57324 18.2793 2.57324 23.8795C2.57324 28.0743 4.01621 31.9331 6.44078 35.0035C9.64876 37.7105 13.8136 39.345 18.3685 39.345C19.251 39.345 20.1212 39.2839 20.9727 39.1617" fill="white" fill-opacity="0.75"></path><path d="M9.19336 9.94479C12.3766 7.32953 16.4732 5.75304 20.9415 5.75304C25.4098 5.75304 29.6582 7.38758 32.8693 10.0945C30.0112 6.47407 25.7937 3.95352 20.9725 3.27832C16.2193 3.94436 12.0483 6.4038 9.19646 9.94479" fill="white" fill-opacity="0.75"></path><path d="M32.2871 22.5474C32.2871 28.7128 27.2212 33.7142 20.9694 33.7142C14.7176 33.7142 9.65166 28.7159 9.65166 22.5474C9.65166 16.379 14.7176 11.3806 20.9694 11.3806C27.2212 11.3806 32.2871 16.379 32.2871 22.5474ZM9.19338 9.94468C6.69759 13.0396 5.20508 16.9564 5.20508 21.2184C5.20508 30.3535 12.0576 37.9121 20.9694 39.1586C29.8811 37.9121 36.7337 30.3535 36.7337 21.2184C36.7337 17.0267 35.2907 13.1649 32.8662 10.0944C29.6582 7.38747 25.4934 5.75293 20.9384 5.75293C16.3835 5.75293 12.3766 7.32636 9.19028 9.94468" fill="white"></path><path d="M58.3384 21.2489C55.8147 21.2489 53.994 19.3242 53.994 16.6783C53.994 14.0325 55.8147 12.0741 58.3384 12.0741C60.862 12.0741 62.6828 13.9653 62.6828 16.6783C62.6828 19.3914 60.9239 21.2489 58.3384 21.2489ZM62.8438 10.3724C61.6299 9.01587 59.8711 8.26123 57.6664 8.26123C52.8111 8.26123 49.2935 11.6983 49.2935 16.6783C49.2935 21.6583 52.808 25.3796 57.6664 25.3796C59.8711 25.3796 61.6299 24.5608 62.8438 23.1401V24.9702H67.2222V8.35594H62.8438V10.3724Z" fill="white"></path><path d="M89.7212 21.2489C87.1975 21.2489 85.3768 19.3242 85.3768 16.6783C85.3768 14.0325 87.1975 12.0741 89.7212 12.0741C92.2448 12.0741 94.0656 13.9653 94.0656 16.6783C94.0656 19.3914 92.3098 21.2489 89.7212 21.2489ZM94.2266 10.3724C93.0128 9.01587 91.2539 8.26123 89.0492 8.26123C84.1939 8.26123 80.6763 11.6983 80.6763 16.6783C80.6763 21.6583 84.1908 25.3796 89.0492 25.3796C91.2539 25.3796 93.0128 24.5608 94.2266 23.1401V24.9702H98.605V8.35594H94.2266V10.3724Z" fill="white"></path><path d="M104.987 8.35596H100.259V24.9702H104.987V8.35596Z" fill="white"></path><path d="M102.655 5.92711C104.38 5.92711 105.724 4.69892 105.724 2.96356C105.724 1.2282 104.383 0 102.655 0C100.927 0 99.5557 1.2618 99.5557 2.96356C99.5557 4.66531 100.931 5.92711 102.655 5.92711Z" fill="white"></path><path d="M79.865 20.9038V24.9703H78.0473C74.57 24.9703 71.7521 22.1901 71.7521 18.7591V12.3278H68.8755V8.35607H72.0401V2.96362H76.6415V8.35607H79.865V12.3278H76.4805V18.2488C76.4805 19.7153 77.6851 20.9038 79.1714 20.9038H79.865Z" fill="white"></path><path d="M52.3714 31.2761H51.6592V36.8824H55.2883V36.2347H52.3714V31.2761Z" fill="white"></path><path d="M58.004 31.2761H57.2949V36.8824H58.004V31.2761Z" fill="white"></path><path d="M60.5771 36.8824H61.2893V34.6094H63.7201V33.983H61.2893V31.9238H64.1815V31.2761H60.5771V36.8824Z" fill="white"></path><path d="M67.0393 34.2916H69.9562V33.6592H67.0393V31.9238H70.269V31.2761H66.3457V36.8824H70.3464V36.2378H67.0393V34.2916Z" fill="white"></path><path d="M78.4781 33.7265C77.5739 33.6073 76.7936 33.5065 76.7936 32.7641C76.7936 32.147 77.3726 31.7314 78.2334 31.7314C79.0943 31.7314 79.7012 32.1439 79.7507 32.7336L79.7569 32.8191H80.4072V32.4464C80.2493 31.6428 79.3482 31.0837 78.2118 31.0837C76.9608 31.0837 76.0845 31.7956 76.0845 32.8099C76.0845 34.0778 77.2488 34.2276 78.2737 34.3589C79.1624 34.475 79.9334 34.5728 79.9303 35.2999C79.9303 35.5596 79.8281 35.801 79.63 35.9904C79.3451 36.2715 78.8806 36.4273 78.3511 36.4243C77.4779 36.409 76.8276 35.9385 76.7688 35.2755L76.7626 35.1899H76.1061V35.5718C76.2981 36.4548 77.2271 37.072 78.3728 37.072C79.0974 37.072 79.726 36.8428 80.144 36.4273C80.4722 36.1004 80.6425 35.6879 80.6394 35.2266C80.6394 34.0045 79.4906 33.8548 78.4781 33.7204" fill="white"></path><path d="M85.6959 31.0837C83.9463 31.0837 82.6768 32.3425 82.6768 34.0748C82.6768 35.8071 83.9463 37.075 85.6959 37.075C86.919 37.075 88.0461 36.3784 88.3805 35.416L88.3867 34.9944H87.8077L87.7891 35.0616C87.5723 35.8529 86.6991 36.4273 85.7144 36.4273C84.3644 36.4273 83.3859 35.4374 83.3859 34.0748C83.3859 33.3996 83.6243 32.7916 84.0609 32.3669C84.482 31.9545 85.0735 31.7376 85.7144 31.7314C86.727 31.7467 87.5909 32.3486 87.7736 33.1643L87.7891 33.2377H88.3867V32.8435L88.3805 32.813C88.043 31.8109 86.9128 31.0837 85.6959 31.0837Z" fill="white"></path><path d="M91.4275 31.2761H90.7153V36.8824H91.4275V31.2761Z" fill="white"></path><path d="M94.6912 34.2916H97.6081V33.6592H94.6912V31.9238H97.9208V31.2761H93.9976V36.8824H97.9983V36.2378H94.6912V34.2916Z" fill="white"></path><path d="M104.408 35.8803L101.076 31.3158L101.045 31.2761H100.28V36.8824H100.958V32.2782L104.3 36.8458L104.327 36.8824H105.095V31.2761H104.408V35.8803Z" fill="white"></path><path d="M110.44 31.0837C108.69 31.0837 107.421 32.3425 107.421 34.0748C107.421 35.8071 108.69 37.075 110.44 37.075C111.663 37.075 112.79 36.3784 113.125 35.416L113.131 34.9944H112.552L112.533 35.0616C112.32 35.8529 111.446 36.4273 110.459 36.4273C109.108 36.4273 108.13 35.4374 108.13 34.0748C108.13 33.3996 108.368 32.7916 108.805 32.3669C109.223 31.9575 109.805 31.7314 110.443 31.7314H110.459C111.468 31.7467 112.335 32.3486 112.518 33.1643L112.533 33.2377H113.131V32.8435L113.125 32.813C112.787 31.8109 111.657 31.0837 110.44 31.0837Z" fill="white"></path><path d="M116.153 34.2916H119.07V33.6592H116.153V31.9238H119.383V31.2761H115.457V36.8824H119.46V36.2378H116.153V34.2916Z" fill="white"></path><path d="M123.838 33.7265C122.934 33.6073 122.154 33.5065 122.154 32.7641C122.154 32.147 122.733 31.7314 123.594 31.7314C124.455 31.7314 125.058 32.1439 125.111 32.7336L125.117 32.8191H125.768V32.4464C125.61 31.6428 124.709 31.0837 123.572 31.0837C122.321 31.0837 121.445 31.7956 121.445 32.8099C121.445 34.0778 122.609 34.2276 123.634 34.3589C124.526 34.475 125.294 34.5728 125.291 35.2999C125.291 35.5596 125.188 35.801 124.99 35.9904C124.709 36.2684 124.25 36.4243 123.733 36.4243H123.711C122.838 36.409 122.188 35.9385 122.129 35.2755L122.123 35.1899H121.466V35.5718C121.658 36.4548 122.587 37.072 123.733 37.072C124.458 37.072 125.086 36.8428 125.504 36.4273C125.833 36.1004 126.003 35.6879 126 35.2266C126 34.0045 124.851 33.8548 123.838 33.7204" fill="white"></path></g><defs><clipPath id="clip0_1001_123"><rect width="126" height="42" fill="white"></rect></clipPath></defs></svg>