<svg fill="none" height="40" viewBox="0 0 163 40" width="163" xmlns="http://www.w3.org/2000/svg"><path d="m38.039 5.92916c.3918 0 .7748.11586 1.1005.33293.3258.21706.5797.52558.7296.88655s.1892.75816.1127 1.14136c-.0764.3832-.2651.73519-.5421 1.01147-.277.27627-.63.46441-1.0143.54063-.3842.07622-.7825.03711-1.1445-.11241-.3619-.14952-.6713-.40272-.889-.72758-.2176-.32486-.3338-.70679-.3338-1.0975 0-.52392.2087-1.02638.5802-1.39685s.8753-.5786 1.4007-.5786zm69.572 0c-.392 0-.775.11586-1.1.33293-.326.21706-.58.52558-.73.88655s-.189.75816-.113 1.14136c.077.3832.265.73519.542 1.01147.277.27627.63.46441 1.015.54063.384.07622.782.03711 1.144-.11241s.672-.40272.889-.72758c.218-.32486.334-.70679.334-1.0975 0-.52392-.209-1.02638-.58-1.39685-.372-.37047-.876-.5786-1.401-.5786zm-101.33154 11.28824c.48744-1.0382 1.25831-1.9184 2.22427-2.5398.89857-.675 1.98807-1.0493 3.11287-1.0696 1.763 0 2.8751.6886 3.5288 1.3772 1.4942 1.6057 1.5338 3.8606 1.5338 6.0025 0 2.6387-.232 4.3968-.8829 5.8107-.8829 1.95-2.3771 2.87-4.6778 2.87-1.95541 0-3.14395-.8043-3.83444-1.6932-1.07252-1.3744-.99611-3.0592-.99611-4.4335zm-.19243-2.1391c.12057-1.0692.1848-2.144.19243-3.22v-4.62816c0-.56442-.0764-1.56625-1.69791-1.56625-.69049 0-1.18855.11288-2.07146.15239l-2.51009.15239v.84662l2.45349-.03951c.99611 0 .99611.76478.99611 1.22478v14.77634c0 1.1853.03962 4.3573 2.56951 6.3073 1.34136 1.0329 3.26 1.4111 5.21539 1.4111 1.415 0 4.0637-.2653 6.0956-2.3311 1.3809-1.411 2.4902-3.8239 2.4902-7.264 0-1.95-.4216-4.281-2.3374-6.1944-1.8394-1.8343-3.6024-1.9501-5.0598-1.9501-1.5734 0-3.64487.1919-5.94272 2.4468zm13.54657-.8043 2.4535-.0395c.9989 0 .9989.7648.9989 1.2248v12.6175c0 .5362-.0792.9933-1.0753 1.0695l-1.6102.1157v.8466c1.4573-.1128 2.8751-.1523 4.2448-.1523 1.4941 0 2.9515.0395 4.3325.1523v-.8466l-1.6979-.1157c-1.415-.1129-1.381-.4967-1.381-1.0695v-7.2894c.0043-1.0117.1597-2.017.4613-2.983.4584-1.4533.9961-2.1024 1.6101-2.5991.5359.2275 1.1161.3326 1.698.3076 1.6979 0 2.3374-.8466 2.3374-1.5324 0-.4938-.3056-1.2219-1.6979-1.2219-1.5338 0-2.5299 1.0328-3.0676 1.7214-.5206.8001-.9694 1.6443-1.3413 2.523h-.3594v-2.2944c0-.5334-.0396-1.5662-1.763-1.5662-.7301 0-1.0754.0762-1.9809.1524l-2.1479.1524zm13.5324-.8466v.8466l2.4563-.0395c.9961 0 .9961.7648.9961 1.2248v12.6175c0 .5362-.0764.9933-1.0725 1.0695l-1.6102.1157v.8466c1.3413-.0762 2.7223-.1523 4.1005-.1523 1.3781 0 2.7223.0761 4.1033.1523v-.8466l-1.6102-.1157c-.9961-.0762-1.0726-.5333-1.0726-1.0695v-13.3682c0-.5644-.0792-1.5662-1.6979-1.5662-.6905 0-1.1913.1129-2.0714.1524zm23.4142 10.8452c0 .8466-.2688 2.0262-1.4941 3.4796-.849.9934-1.9555 1.9134-3.8345 1.9134-2.6827 0-4.024-1.6933-4.6381-3.1749-.4981-1.2247-.6905-2.6753-.6905-4.3205 0-7.1116 2.8298-8.565 5.289-8.565 1.2517-.0093 2.4738.3791 3.4892 1.1091.8107.6094 1.4564 1.4105 1.879 2.331zm.1161 3.251v5.1729c0 .6095 0 3.2482-1.415 4.8935-1.1093 1.3376-2.7195 1.5662-3.7184 1.5662-2.7223 0-3.2204-1.5267-3.6024-2.5596-.2292-.6124-.8829-2.2182-2.1479-2.2182-.4584 0-1.1489.3048-1.1489 1.2615 0 .6124.2688 1.4534 1.3017 2.4072 1.9951 1.7977 4.2958 1.9529 5.4447 1.9529 6.2115 0 8.0509-4.933 8.0509-9.8293v-14.9569c0-1.1091.6905-1.1091 1.3414-1.1458l1.381-.079v-.8466h-2.9969c-.6508 0-1.5309.0367-1.9158.9538-.1924.4233-.116.8043-.2292 1.4534h-.1613c-1.879-2.3705-4.4853-2.791-6.0587-2.791-1.1193-.0158-2.229.2081-3.2542.6565-1.0252.4483-1.942 1.1108-2.6885 1.9426-1.763 1.95-2.1083 4.3601-2.1083 6.6149 0 1.6058.2292 3.7477 1.6102 5.5821 1.2253 1.6452 3.2968 2.9434 6.5936 2.9434 1.1517 0 3.5656-.1129 5.4079-2.9801zm4.4287-20.71395 2.4535-.03951c.9961 0 .9961.76478.9961 1.22478v20.09598c0 .5362-.0764.9933-1.0725 1.0695l-1.6102.1157v.8467c1.3413-.0762 2.7223-.1524 4.1033-.1524s2.7223.0762 4.1005.1524v-.8467l-1.6102-.1157c-.9961-.0762-1.0726-.5333-1.0726-1.0695v-7.7692c-.0133-1.0278.2156-2.0444.6683-2.9679s1.1165-1.728 1.938-2.3489c.817-.68 1.8508-1.0463 2.9148-1.0328.9197 0 2.1083.1552 2.9883 1.1881.6134.8102.9255 1.8077.883 2.822v10.0946c0 .5362-.0764.9933-1.0726 1.0695l-1.6101.1157v.8466c1.3413-.0762 2.7223-.1523 4.1004-.1523 1.3782 0 2.7224.0761 4.1033.1523v-.8466l-1.6102-.1157c-.9961-.0762-1.0725-.5333-1.0725-1.0695v-9.5076c0-1.222-.116-2.5229-1.3442-3.9001-1.2281-1.3772-2.8751-1.9105-4.8673-1.9105-1.4404-.0222-2.8364.4966-3.9109 1.4533-.7376.6449-1.3942 1.3764-1.9554 2.1787h-.1529v-9.16046c0-.5362-.0396-1.56625-1.7262-1.56625-.6905 0-1.0329.0762-2.0318.15239l-2.5299.15239zm23.5048 6.33275h-3.2289v.8466h3.2119v10.3626c0 1.4111 0 3.2906 1.1914 4.7044.6113.7253 1.647 1.4506 3.4496 1.4506 2.9516 0 3.6788-2.8221 3.7185-4.5154h-.7669c.0115.8232-.2144 1.6323-.6509 2.3311-.1972.3596-.4937.6553-.8544.8518-.3606.1966-.7703.2859-1.1803.2572-1.9526 0-2.0686-2.2943-2.0686-2.9039v-12.5469h4.7542v-.8466h-4.7542v-7.05517h-2.8299zm8.8773-7.17373v.84662l2.4535-.03951c.9989 0 .9989.76478.9989 1.22478v20.09594c0 .5644-.116.9934-1.4573 1.0696l-1.6102.1157v.8466c1.3781-.1157 2.8298-.1524 4.3325-.1524 1.381 0 2.7985.0367 4.2445.1524v-.8466l-1.61-.1157c-.9989-.0762-1.0753-.5334-1.0753-1.0696v-20.86636c0-.56442-.0764-1.56625-1.6979-1.56625-.6905 0-1.1885.11288-2.0686.15239zm9.2279 7.47853v.8466l2.454-.0395c.996 0 .996.7647.996 1.2247v12.6175c0 .5362-.077.9934-1.073 1.0696l-1.61.1157v.8466c1.342-.0762 2.722-.1524 4.103-.1524s2.723.0762 4.101.1524v-.8466l-1.607-.1157c-.999-.0762-1.076-.5334-1.076-1.0696v-13.3879c0-.5644-.076-1.5662-1.698-1.5662-.69 0-1.188.1129-2.071.1524zm30.39 15.8289-1.61-.1157c-.996-.0762-1.073-.5333-1.073-1.0695v-9.5189c0-1.1881-.116-2.5624-1.341-3.9509-.883-.9933-2.377-1.8738-4.528-1.8738-1.541-.0208-3.033.5384-4.179 1.5662-.813.7872-1.522 1.6749-2.109 2.6415h-.382v-2.2577c0-.5644-.076-1.5662-1.698-1.5662-.611 0-1.301.1129-2.068.1524l-2.185.1524v.8466l2.454-.0395c.996 0 .996.7648.996 1.2248v12.6174c0 .5362-.077.9934-1.073 1.0696l-1.61.1157v.8466c1.341-.0762 2.722-.1524 4.1-.1524 1.379 0 2.723.0762 4.104.1524v-.8466l-1.61-.1157c-.997-.0762-1.073-.5334-1.073-1.0696v-7.2978c.012-1.0544.242-2.0949.678-3.0558.435-.9608 1.066-1.8211 1.852-2.5263.874-.8079 2.029-1.2468 3.22-1.2248.52-.0171 1.036.0806 1.513.286s.903.5134 1.246.9021c.615.7253.849 1.9106.849 2.8672v10.0551c0 .5362-.073.9933-1.072 1.0695l-1.61.1157v.8467c1.341-.0762 2.722-.1524 4.103-.1524s2.722.0762 4.1.1524zm3.042-10.8198c.075-1.2179.531-2.3817 1.305-3.3272.387-.4427.858-.8048 1.385-1.0656.528-.2609 1.102-.4152 1.69-.4543.587-.0391 1.177.0379 1.735.2266.557.1887 1.072.4853 1.515.8728 1.112 1.1091 1.228 2.7515 1.151 3.7477zm5.063 12.0418c2.145 0 4.944-.4967 6.746-5.3619l-.727-.4233c-1.65 4.5519-3.987 4.8567-5.561 4.8567-1.454 0-5.826-.0762-5.826-7.0354 0-1.2219.116-2.4072.192-3.2482h11.237c.133-.0007.259-.0537.353-.1473.093-.0936.145-.2202.145-.3522 0-3.2454-2.504-6.0392-6.752-6.0392-6.058 0-8.319 4.6649-8.319 8.9459 0 4.5153 2.951 8.7936 8.512 8.7936zm-1.941-20.3104-.988-4.59436-.77.16368.985 4.59428zm10.34-2.18431-.64-.45718-2.81 3.89449.64.46zm-5.405-2.25766-.773-.16368-.984 4.59435.769.1637zm5.145-4.31494-.714-.29914-4.244 9.51885.718.3217zm-8.097-1.43079h-.789v10.0804h.789zm12.432 11.974-.416-.6688-4.205 2.6048.416.6688zm8.274-.1975-.283-.7337-11.602 4.4532.283.7337zm-5.543-6.16905-.535-.56442-8.13 7.52647.535.5644zm-.595 11.50835-.141-.7732-4.964.9143.145.7733zm7.152 1.9755h-11.991v.7873h11.999zm-28.995-6.519-8.13-7.52644-.538.56441 8.13 7.52643zm1.584-1.1062-2.81-3.89449-.642.45717 2.813 3.89732zm1.789-.7987-4.287-9.59502-.719.32172 4.284 9.5809z" fill="#fff"></path></svg>