<svg fill="none" height="42" viewBox="0 0 156 42" width="156" xmlns="http://www.w3.org/2000/svg"><path d="m64.1978 0v9.18298c1.1875-2.13835 3.1413-3.20861 5.8615-3.21079.9097-.02484 1.8152.13329 2.6626.465.8475.33171 1.6197.83024 2.2708 1.46604 1.3177 1.28518 1.9766 3.14027 1.9766 5.56517v10.5376h-2.2371v-10.1241c0-1.9538-.4711-3.4365-1.4133-4.44818-.9422-1.01164-2.2284-1.51964-3.8588-1.52398-1.6347 0-2.922.50799-3.862 1.52398-.9401 1.01598-1.4111 2.49868-1.4133 4.44818v10.1241h-2.2795v-24.006zm24.8917 24.3382c-2.5334 0-4.5893-.8434-6.1675-2.5302-1.5783-1.6868-2.3674-3.9099-2.3674-6.6691 0-2.7571.8054-4.9747 2.4162-6.65278 1.6108-1.67812 3.6982-2.5161 6.262-2.51393 2.5661 0 4.6056.78913 6.1188 2.36739.7486.77778 1.3355 1.69632 1.7268 2.70242s.5791 2.0799.5526 3.1591c.0021.5864-.0415 1.1722-.1302 1.7519h-14.6114c.0869 2.0363.7034 3.6374 1.8496 4.8031.5647.5769 1.2428 1.0305 1.9917 1.332.7488.3016 1.552.4446 2.3588.42 1.2299.0366 2.4432-.2907 3.4876-.9411.9211-.5768 1.6236-1.4442 1.9962-2.4651h2.4325c-.5714 1.4982-1.563 2.7996-2.8558 3.7481-1.3178.9856-3.0046 1.4784-5.0605 1.4784zm6.1872-10.1567c0-1.9538-.5894-3.506-1.7682-4.6566-1.1811-1.10911-2.7387-1.7292-4.3588-1.73524-1.6202-.00605-3.1823.60241-4.3716 1.70268-1.1549 1.13756-1.7877 2.70066-1.8985 4.68916zm7.3333 7.5288c-1.622-1.752-2.432-3.9858-2.432-6.7017 0-2.7158.805-4.9008 2.416-6.55505 1.611-1.65424 3.661-2.48136 6.151-2.48136 1.492-.03662 2.962.36654 4.227 1.15927 1.166.728 2.101 1.7742 2.693 3.01544v-3.85884h2.279v17.71794h-2.279v-3.9076c-.594 1.244-1.528 2.295-2.693 3.0316-1.258.8038-2.725 1.2164-4.217 1.1854-1.151.0306-2.294-.1871-3.353-.6384-1.059-.4512-2.008-1.1254-2.782-1.9765zm11.114-1.3026c1.287-1.3329 1.931-3.0805 1.931-5.2428 0-2.1622-.644-3.9087-1.931-5.23946-.593-.6399-1.314-1.14818-2.117-1.49202-.802-.34384-1.667-.51559-2.54-.50414-.859-.01543-1.713.14468-2.509.47055-.795.32587-1.516.81064-2.118 1.42466-1.276 1.27651-1.915 3.00131-1.915 5.17441s.639 3.9478 1.915 5.3241c.582.6547 1.297 1.1771 2.097 1.5321.801.355 1.668.5344 2.543.526.872.0122 1.737-.1589 2.539-.5022.801-.3433 1.522-.8512 2.115-1.4907zm9.082 3.5983v-24.006h2.28v24.006zm15.022-15.93344h-4.885v11.74574c0 .8901.174 1.512.521 1.8659.345.3582.977.5373 1.85.5373h2.53v1.7845h-3.019c-2.768 0-4.152-1.3959-4.152-4.1877v-11.74574h-2.465v-1.7845h2.465v-4.44821h2.28v4.44821h4.885zm5.389-8.07256v9.18298c1.19-2.13835 3.144-3.20861 5.862-3.21079.909-.02539 1.815.13247 2.662.46421.848.33174 1.62.83058 2.271 1.46683 1.32 1.28518 1.98 3.14027 1.98 5.56517v10.5376h-2.241v-10.1241c0-1.9538-.47-3.4365-1.41-4.44818-.94-1.01164-2.227-1.51964-3.862-1.52398-1.634 0-2.922.50799-3.862 1.52398-.94 1.01598-1.41 2.49868-1.41 4.44818v10.1241h-2.279v-24.006zm-133.44302 20.4175c-2.6051 0-4.44495-2.185-4.44495-4.979v-.0554c0-2.7158 1.83659-4.9236 4.44495-4.9236 1.78452 0 3.00892.8499 4.07372 2.1818l3.8881-3.00894c-1.651-2.27946-4.0998-3.88811-7.90646-3.88811-5.64656 0-9.82774524 4.26255-9.82774524 9.69425v.0521c-.02331406 1.27.20920624 2.5317.68371124 3.71.474504 1.1782 1.181284 2.2489 2.078254 3.1483s1.96577 1.6091 3.14274 2.0868c1.17698.4777 2.43805.7136 3.70812.6938 4.12578 0 6.51278-1.7845 8.25488-4.2073l-3.8881-2.7679c-1.1169 1.3579-2.2632 2.2632-4.20722 2.2632zm38.98212-7.2683c-2.5823-.5861-3.2206-.9769-3.2206-1.8138v-.0521c0-.6512.6122-1.1983 1.8659-1.1983 1.651 0 3.5136.6513 5.2102 1.8366l2.5823-3.64715c-2.0222-1.62819-4.5003-2.47484-7.6655-2.47484-4.4742 0-7.2194 2.50089-7.2194 5.96239v.0554c0 3.8327 3.0643 4.9529 7.0305 5.8615 2.5303.5861 3.1425 1.0094 3.1425 1.7812v.0554c0 .7978-.7458 1.2765-2.1297 1.2765-2.2059-.0287-4.3345-.8164-6.0276-2.2307l-2.8754 3.4355c2.2795 2.0515 5.4317 3.0903 8.7337 3.0903 4.5263 0 7.5352-2.2794 7.5352-6.0699v-.0651c0-3.4876-2.6637-4.8715-6.9621-5.8029zm-29.3986 2.2469c.0034 1.95.6404 3.8461 1.8151 5.4025 1.1747 1.5565 2.8234 2.689 4.6977 3.2269-2.0701.6015-3.8535 1.9297-5.0228 3.7406-1.1693 1.811-1.6458 3.983-1.3421 6.1171.3038 2.1342 1.3674 4.087 2.9955 5.4998s3.7114 2.1906 5.867 2.1906 4.2389-.7778 5.867-2.1906 2.6917-3.3656 2.9955-5.4998c.3037-2.1341-.1728-4.3061-1.3421-6.1171-1.1693-1.8109-2.9527-3.1391-5.0228-3.7406 1.8648-.5451 3.503-1.6794 4.6694-3.2332 1.1663-1.5538 1.7982-3.4435 1.8011-5.3864v-8.99409h-8.9876c-2.3815.00344-4.6643.95122-6.348 2.63545-1.6836 1.68424-2.6305 3.96744-2.6331 6.34884zm13.54 17.223c.0007.8979-.2652 1.7757-.7638 2.5224s-1.2076 1.3286-2.0372 1.672c-.8296.3435-1.7424.433-2.6229.2573s-1.689-.6088-2.3232-1.2444c-.6342-.6355-1.0655-1.445-1.2393-2.3259-.1739-.8808-.0824-1.7935.2629-2.6223.3452-.8288.9286-1.5366 1.6764-2.0336.7477-.497 1.6262-.7609 2.524-.7584 1.2017.0018 2.3536.4799 3.2033 1.3296s1.3279 2.0017 1.3296 3.2033zm0-17.223c0 .9017-.2674 1.7831-.7683 2.5329-.5009.7497-1.2129 1.334-2.046 1.679-.833.3451-1.7497.4354-2.634.2595-.8844-.1759-1.6967-.6101-2.3343-1.2477-.6375-.6376-1.0717-1.4499-1.2476-2.3342-.1759-.8844-.0857-1.801.2594-2.6341.345-.833.9294-1.545 1.6791-2.046.7497-.5009 1.6311-.7683 2.5328-.7683h4.5589z" fill="#fff"></path></svg>