<svg xmlns="http://www.w3.org/2000/svg" width="144" height="35" viewBox="0 0 144 35" fill="none"><path d="M30.9514 25.1638C30.9514 25.129 30.9514 25.0969 30.9514 25.0647C30.9514 25.0326 30.9514 25.0165 30.938 24.9924C30.9245 24.9683 30.9245 24.9228 30.9164 24.8906C30.9083 24.8585 30.903 24.8397 30.8949 24.8156C30.8868 24.7915 30.876 24.754 30.8653 24.7219L30.833 24.6388C30.8229 24.6122 30.8112 24.5863 30.798 24.5611C30.7818 24.5263 30.7656 24.4942 30.7468 24.462C30.728 24.4299 30.7468 24.4325 30.7253 24.4192V24.4031L30.6606 24.3013C30.6472 24.2852 30.6364 24.2665 30.623 24.2477C30.6095 24.229 30.5772 24.1915 30.5529 24.162L30.5072 24.1057L30.4426 24.0388C30.4214 24.0169 30.3989 23.9963 30.3752 23.9772L30.3079 23.9289L30.2218 23.862L30.1679 23.8245L30.0683 23.7602H30.0522L19.1642 17.5L30.0387 11.2613C30.0973 11.226 30.1539 11.1876 30.2083 11.1462C30.2265 11.1343 30.2436 11.1208 30.2595 11.106C30.3016 11.0742 30.3421 11.0402 30.3806 11.0042L30.4291 10.956C30.4749 10.9104 30.5153 10.8649 30.5556 10.8167L30.5745 10.7926C30.6209 10.7315 30.6641 10.668 30.7037 10.6024V10.589C30.7037 10.5756 30.7172 10.5595 30.7253 10.5461C30.7333 10.5327 30.7603 10.4818 30.7764 10.447C30.7926 10.4122 30.8006 10.3961 30.8114 10.3693L30.8464 10.2675C30.8464 10.2354 30.8653 10.2032 30.876 10.1738C30.8868 10.1443 30.8895 10.1256 30.8976 10.0988C30.9056 10.072 30.8976 10.0318 30.9191 9.99699C30.9406 9.96216 30.9191 9.94877 30.9326 9.92466C30.946 9.90055 30.9326 9.86038 30.9326 9.82555C30.9326 9.79073 30.9326 9.77197 30.9326 9.74519C30.9326 9.7184 30.9326 9.68626 30.9326 9.65411C30.9326 9.62197 30.9326 9.59518 30.9326 9.56304C30.934 9.53716 30.934 9.51123 30.9326 9.48535C30.9326 9.45053 30.9326 9.41839 30.9326 9.38357C30.9326 9.34874 30.9326 9.33535 30.9191 9.31124C30.9056 9.28713 30.9056 9.24427 30.8976 9.20944C30.8895 9.17462 30.8841 9.16123 30.876 9.13712C30.8679 9.11301 30.8572 9.07283 30.8464 9.04337L30.8141 8.96033C30.8141 8.93354 30.7926 8.90676 30.7791 8.87997C30.7656 8.85318 30.7468 8.81568 30.7279 8.78353L30.7064 8.738V8.72193L30.6418 8.62281C30.6283 8.60406 30.6176 8.58531 30.6041 8.56924L30.5368 8.48352L30.4883 8.42727L30.4237 8.3603L30.3564 8.29601L30.2999 8.24779L30.2137 8.18082L30.1599 8.14332L30.0602 8.07903H30.0441L16.4045 0.243809C16.3884 0.237405 16.3731 0.229324 16.3588 0.219702L16.2618 0.171487L16.1811 0.136663L16.1003 0.107201C16.068 0.0938072 16.0357 0.0857724 16.0007 0.0750576L15.9334 0.0563047L15.8257 0.0321973H15.7584L15.6534 0.0187988H15.578H15.3949H15.3087L15.2145 0.0321973L15.1364 0.0455875C15.1028 0.0504373 15.0695 0.0576022 15.0368 0.0670218L14.9614 0.0884478L14.8699 0.115237L14.7837 0.150061L14.7056 0.182204L14.606 0.2331L14.5629 0.254526L0.923376 8.08975H0.907223L0.845299 8.12725L0.788757 8.16475L0.753755 8.19154C0.734656 8.20433 0.716647 8.21867 0.699909 8.2344L0.651448 8.2719L0.61106 8.30672L0.56529 8.34958L0.522211 8.39244L0.479136 8.43798L0.444134 8.47816L0.403746 8.52638L0.363362 8.57995C0.353551 8.5909 0.344551 8.60253 0.336437 8.61477L0.298744 8.6737L0.26105 8.73264V8.74871V8.76746L0.226052 8.82907L0.196436 8.89068L0.153357 8.92818L0.126432 8.99247C0.126432 9.01122 0.126435 9.02997 0.104896 9.0514L0.0887387 9.09962C0.0812204 9.11977 0.074929 9.14034 0.0698942 9.16123L0.0537406 9.21748C0.0524835 9.238 0.0524835 9.25858 0.0537406 9.27909C0.0524832 9.29604 0.0524832 9.31305 0.0537406 9.32999C0.0537406 9.35142 0.0537406 9.37017 0.0537406 9.3916V9.46124C0.0537406 9.47464 0.0537406 9.48803 0.0537406 9.5041C0.0537406 9.52018 0.0537406 9.54964 0.0537406 9.57107C0.052399 9.59516 0.052399 9.61931 0.0537406 9.6434C0.0537406 9.6434 0.0537406 9.65679 0.0537406 9.66215V25.3326C0.0537406 25.3326 0.0537406 25.3326 0.0537406 25.3513C0.052399 25.3754 0.052399 25.3996 0.0537406 25.4237C0.0537406 25.4451 0.0537406 25.4692 0.0537406 25.4906C0.0537406 25.5121 0.0537406 25.5201 0.0537406 25.5335V25.6031C0.0537406 25.6219 0.0537406 25.6433 0.0537406 25.6647C0.0524832 25.6817 0.0524832 25.6987 0.0537406 25.7156C0.0524835 25.7362 0.0524835 25.7567 0.0537406 25.7773L0.0698942 25.8335C0.074929 25.8544 0.0812204 25.875 0.0887387 25.8951L0.104896 25.9433C0.104896 25.9648 0.121047 25.9835 0.126432 26.0023L0.153357 26.0666L0.172206 26.1067L0.201818 26.1657C0.201818 26.1871 0.223358 26.2085 0.23682 26.23V26.2487L0.277208 26.313L0.322978 26.38C0.33644 26.3987 0.349899 26.4201 0.366053 26.4389L0.384901 26.463C0.384901 26.4818 0.414517 26.4978 0.430671 26.5166C0.452571 26.5437 0.475938 26.5697 0.500671 26.5943L0.524906 26.621L0.559904 26.6505L0.629908 26.7148C0.64847 26.7315 0.668271 26.7467 0.689141 26.7603L0.732216 26.7952L0.767218 26.8219L0.861453 26.8809L0.901837 26.9077L7.70546 30.8159L14.5252 34.7349L14.5495 34.7483C14.6134 34.7828 14.679 34.814 14.746 34.842C14.9648 34.9309 15.1989 34.9764 15.4353 34.9759V34.9759C15.6716 34.9764 15.9057 34.9309 16.1245 34.842V34.842C16.1921 34.8142 16.2578 34.782 16.3211 34.7456H16.3426L23.1624 30.8266L30.0387 26.9291C30.0973 26.8947 30.1539 26.8572 30.2083 26.8166L30.2595 26.7764C30.3017 26.7437 30.3421 26.7088 30.3806 26.6719L30.4291 26.6237C30.4741 26.5799 30.5163 26.5334 30.5556 26.4844L30.5745 26.4603C30.6215 26.3997 30.6647 26.3362 30.7037 26.2701C30.7037 26.2541 30.7172 26.238 30.7253 26.2246C30.7333 26.2112 30.7603 26.1603 30.7764 26.1282C30.7926 26.096 30.8006 26.0746 30.8114 26.0478L30.8437 25.9648C30.8437 25.9353 30.8626 25.9032 30.8733 25.871C30.8841 25.8389 30.8868 25.8228 30.8949 25.7987C30.903 25.7746 30.8949 25.729 30.9164 25.6969C30.938 25.6647 30.9164 25.6487 30.9299 25.6246C30.9433 25.6005 30.9299 25.5576 30.9299 25.5228C30.9312 25.4969 30.9312 25.471 30.9299 25.4451C30.9299 25.4129 30.9299 25.3835 30.9299 25.354C30.9299 25.3246 30.9299 25.2924 30.9299 25.2629C30.9299 25.2335 30.9541 25.1906 30.9514 25.1638ZM9.57666 7.33435L15.4757 3.94579L21.3746 7.33435L25.4321 9.66483L15.4703 15.3839L5.50849 9.66483L9.57666 7.33435ZM3.68306 12.8391L11.7979 17.5L3.68306 22.161V12.8391ZM21.38 27.6791L15.481 31.0543L9.57666 27.6791L5.5381 25.3353L15.4999 19.6162L25.4617 25.3353L21.38 27.6791ZM48.7372 11.8748C49.7188 11.8724 50.6836 12.1274 51.5346 12.6141C51.9949 12.8658 52.5358 12.9289 53.0421 12.7899C53.5484 12.651 53.9803 12.321 54.2458 11.8701C54.5114 11.4192 54.5896 10.883 54.4639 10.3756C54.3382 9.86823 54.0185 9.42965 53.5727 9.15319C52.1012 8.30235 50.4285 7.8567 48.7265 7.86206C46.1558 7.86206 43.6905 8.87805 41.8728 10.6865C40.0551 12.495 39.0339 14.9478 39.0339 17.5054C39.0339 20.063 40.0551 22.5158 41.8728 24.3243C43.6905 26.1328 46.1558 27.1488 48.7265 27.1488C50.4285 27.1541 52.1012 26.7085 53.5727 25.8576C54.0185 25.5812 54.3382 25.1426 54.4639 24.6352C54.5896 24.1278 54.5114 23.5916 54.2458 23.1407C53.9803 22.6898 53.5484 22.3598 53.0421 22.2209C52.5358 22.0819 51.9949 22.145 51.5346 22.3967C50.6826 22.8796 49.7178 23.1309 48.7372 23.1253C47.2356 23.1253 45.7954 22.5318 44.7336 21.4754C43.6717 20.4189 43.0752 18.9861 43.0752 17.492C43.0752 15.998 43.6717 14.5651 44.7336 13.5087C45.7954 12.4522 47.2356 11.8587 48.7372 11.8587V11.8748ZM72.0397 7.8567C71.5054 7.85741 70.9931 8.0691 70.6155 8.44529C70.2379 8.82148 70.0258 9.3314 70.0258 9.86305V17.4063C70.0204 20.5538 68.0012 23.1253 65.508 23.1253C63.0149 23.1253 61.001 20.5538 61.001 17.4036V9.86038C61.001 9.32755 60.7883 8.81654 60.4096 8.43977C60.0309 8.06301 59.5173 7.85135 58.9817 7.85135C58.4462 7.85135 57.9326 8.06301 57.5539 8.43977C57.1752 8.81654 56.9624 9.32755 56.9624 9.86038V17.4036C56.9624 22.761 60.7964 27.1246 65.5053 27.1246C70.2143 27.1246 74.0482 22.7637 74.0482 17.4036V9.86038C74.0475 9.33011 73.8359 8.82169 73.4595 8.44623C73.0831 8.07078 72.5727 7.85882 72.0397 7.8567V7.8567ZM106.233 7.8567C104.267 7.85706 102.352 8.47589 100.762 9.62465V3.83864C100.762 3.30581 100.549 2.7948 100.171 2.41804C99.7918 2.04127 99.2782 1.82961 98.7427 1.82961C98.2071 1.82961 97.6935 2.04127 97.3148 2.41804C96.9361 2.7948 96.7234 3.30581 96.7234 3.83864V17.5C96.7234 22.8173 100.985 27.1434 106.225 27.1434C111.464 27.1434 115.726 22.8146 115.726 17.5C115.726 12.1855 111.48 7.8567 106.233 7.8567ZM106.233 23.1253C103.217 23.1253 100.762 20.5993 100.762 17.5C100.762 14.4008 103.217 11.8748 106.233 11.8748C109.248 11.8748 111.704 14.4008 111.704 17.5C111.704 20.5993 109.259 23.1253 106.233 23.1253ZM119.862 7.8567C119.327 7.85741 118.815 8.0691 118.437 8.44529C118.06 8.82148 117.848 9.3314 117.848 9.86305V25.1317C117.848 25.6645 118.061 26.1755 118.439 26.5523C118.818 26.929 119.332 27.1407 119.867 27.1407C120.403 27.1407 120.916 26.929 121.295 26.5523C121.674 26.1755 121.886 25.6645 121.886 25.1317V9.86305C121.886 9.33093 121.674 8.82061 121.296 8.44434C120.917 8.06808 120.405 7.8567 119.87 7.8567H119.862ZM85.3993 7.8567C80.1599 7.8567 75.8979 12.1855 75.8979 17.5C75.8979 22.8146 80.3322 27.1434 85.7843 27.1434C87.5226 27.1478 89.232 26.7009 90.7436 25.8469C91.1779 25.5694 91.4888 25.1367 91.6121 24.638C91.7354 24.1393 91.6617 23.6125 91.4064 23.1662C91.151 22.7199 90.7334 22.388 90.2394 22.2389C89.7455 22.0897 89.2129 22.1347 88.7513 22.3646C87.8414 22.8722 86.814 23.1345 85.7708 23.1253C84.5989 23.1346 83.4511 22.7939 82.4758 22.1473C81.5006 21.5007 80.7426 20.578 80.2999 19.4984H92.8733C93.4079 19.4998 93.9213 19.2902 94.3008 18.9156C94.6804 18.541 94.8951 18.0319 94.898 17.5C94.898 12.1828 90.6332 7.8567 85.3939 7.8567H85.3993ZM80.2838 15.4964C80.6499 14.4361 81.3396 13.5161 82.2567 12.8648C83.1738 12.2135 84.2725 11.8634 85.3993 11.8634C86.5261 11.8634 87.6247 12.2135 88.5418 12.8648C89.4589 13.5161 90.1487 14.4361 90.5148 15.4964H80.2838ZM119.862 1.83496C119.463 1.83496 119.073 1.9527 118.741 2.17328C118.409 2.39386 118.151 2.70737 117.998 3.07414C117.846 3.44091 117.806 3.84446 117.884 4.23373C117.962 4.62299 118.154 4.98048 118.437 5.26097C118.719 5.54145 119.079 5.73233 119.47 5.80944C119.861 5.88656 120.267 5.84644 120.635 5.69417C121.004 5.54191 121.318 5.28433 121.54 4.95404C121.761 4.62374 121.879 4.23557 121.878 3.83864C121.877 3.30909 121.665 2.80163 121.288 2.42718C120.912 2.05272 120.402 1.84174 119.87 1.84033L119.862 1.83496ZM133.499 7.8567C128.259 7.8567 124.003 12.1828 124.003 17.5C124.003 22.8173 128.265 27.1434 133.504 27.1434C135.469 27.1434 137.384 26.5245 138.975 25.3755V31.1615C138.975 31.6943 139.188 32.2053 139.566 32.5821C139.945 32.9588 140.459 33.1705 140.994 33.1705C141.53 33.1705 142.043 32.9588 142.422 32.5821C142.801 32.2053 143.013 31.6943 143.013 31.1615V17.5C143.003 12.1828 138.741 7.8567 133.499 7.8567ZM133.499 23.1253C130.483 23.1253 128.03 20.5993 128.03 17.5C128.03 14.4008 130.483 11.8748 133.499 11.8748C136.514 11.8748 138.969 14.4008 138.969 17.5C138.969 20.5993 136.517 23.1253 133.499 23.1253Z" fill="white"></path></svg>