<svg xmlns="http://www.w3.org/2000/svg" width="116" height="34" viewBox="0 0 116 34" fill="none"><g clip-path="url(#clip0_630_123)"><path d="M42.9482 30.4302H39.9381V27.8689H38.9802V33.9826H39.9381V31.3427H42.9482V33.9826H43.9061V27.8689H42.9482V30.4302Z" fill="white"></path><path d="M50.1676 31.3049H52.8437V30.4381H50.1676V28.7358H53.1087V27.8689H49.2097V33.9826H53.14V33.1079H50.1676V31.3049Z" fill="white"></path><path d="M60.0506 27.8689L57.5688 33.9826H58.5487L59.1084 32.5462H62.0965L62.6483 33.9826H63.6438L61.1778 27.8689H60.049H60.0506ZM59.4517 31.6951L60.6024 28.7908L61.7625 31.6951H59.4517V31.6951Z" fill="white"></path><path d="M69.2 27.8689H68.2437V33.9826H71.9467V33.0922H69.2V27.8689Z" fill="white"></path><path d="M75.2874 28.7578H77.2172V33.9826H78.1736V28.7578H80.1113V27.8689H75.2874V28.7578Z" fill="white"></path><path d="M88.7417 27.8689V30.4302H85.7301V27.8689H84.7722V33.9826H85.7301V31.3427H88.7417V33.9826H89.6981V27.8689H88.7417Z" fill="white"></path><path d="M113.358 5.40886H113.664V4.21003H114.114V3.93628H112.907V4.21003H113.358V5.40886Z" fill="white"></path><path d="M115.627 3.93628L115.196 4.96205L114.766 3.93628H114.368V5.40886H114.674V4.48063L115.067 5.40886H115.306L115.712 4.46962V5.40886H116V3.93628H115.627Z" fill="white"></path><path d="M59.1649 20.2417C58.6476 20.3503 58.276 20.3157 58.0597 20.1395C57.8621 19.979 57.7665 19.6832 57.7665 19.2364V6.05867C57.7665 2.74536 56.3305 1.1658 54.7063 0.440516C54.4978 0.347693 54.2861 0.26903 54.0745 0.201379C53.6277 0.0597844 53.1589 0 52.6902 0H37.2778C37.1131 0 36.9564 0.0959696 36.8999 0.251724C36.8168 0.486141 36.9595 0.720559 37.1806 0.767757C38.3814 1.02892 38.9819 1.33099 38.9819 2.53612V19.3355C38.9819 20.5375 38.3846 20.8411 37.19 21.074C37.0081 21.1102 36.8764 21.2691 36.8764 21.4547V21.4815C36.8764 21.697 37.0504 21.8701 37.2636 21.8701H44.2808C44.494 21.8701 44.6681 21.697 44.6681 21.4815V21.4657C44.6681 21.2738 44.527 21.1117 44.3388 21.0819C42.8197 20.8474 42.1754 20.5532 42.1754 19.3339V12.819C42.1754 11.5872 42.9467 11.304 44.3514 11.304H47.8255C49.8573 11.304 50.3589 12.1331 50.6458 13.2186C50.6819 13.3571 50.8073 13.4531 50.95 13.4531C51.124 13.4531 51.2651 13.3115 51.2651 13.1368V8.37925C51.2651 8.20462 51.124 8.06302 50.95 8.06302C50.8073 8.06302 50.6819 8.15899 50.6458 8.29901C50.3605 9.4066 49.8588 10.1775 47.8255 10.1775H44.3514C42.9483 10.1775 42.1754 9.89589 42.1754 8.66244V2.64153C42.1754 1.40808 42.9467 1.12646 44.3514 1.12646H48.8429C49.6613 1.12646 50.5236 1.24603 51.3325 1.48989C53.4443 2.12549 54.9007 4.1031 54.9054 6.31512C54.9054 6.32298 54.9054 6.33242 54.9054 6.34029V19.3009C54.9054 21.0551 55.6485 21.8716 57.246 21.8716C57.7979 21.8716 58.5551 21.7977 59.5286 21.2219C59.6807 21.1322 59.7748 20.9639 59.7748 20.7829V20.742C59.7748 20.5878 59.7058 20.4431 59.5866 20.3471C59.4675 20.2496 59.3139 20.2134 59.1634 20.2433L59.1649 20.2417Z" fill="white"></path><path d="M75.2687 20.4243C74.9567 20.4542 74.7169 20.3928 74.557 20.2465C74.3594 20.0656 74.2607 19.7399 74.2607 19.2742V8.04264C74.2607 7.51087 74.06 7.24027 73.8907 7.10654C73.6555 6.92089 73.331 6.87055 72.9516 6.9618L69.7487 7.6918C69.5245 7.74371 69.3677 7.94037 69.3677 8.17164C69.3677 8.30695 69.4211 8.43281 69.5198 8.52563C69.617 8.61845 69.7518 8.66723 69.8867 8.66093C70.4777 8.62947 70.854 8.71285 71.075 8.92367C71.3102 9.14707 71.4058 9.54983 71.4058 10.3081V15.9719C71.4058 18.2768 69.8632 20.0137 67.8173 20.0137C65.7714 20.0137 64.4168 18.4656 64.4168 15.9719V8.04264C64.4168 7.61156 64.2961 7.2969 64.0578 7.10497C63.8979 6.97753 63.6032 6.84695 63.1078 6.9618L59.9049 7.6918C59.6807 7.74371 59.5239 7.94037 59.5239 8.17164C59.5239 8.30695 59.5772 8.43281 59.676 8.52563C59.7732 8.61845 59.908 8.66723 60.0428 8.66093C60.6323 8.62947 61.0101 8.71285 61.2312 8.92367C61.4664 9.14707 61.562 9.54983 61.562 10.3081V16.6327C61.562 20.5187 64.0155 21.9032 66.3122 21.9032C68.9162 21.9032 70.3507 20.4243 70.89 19.8689L70.981 19.7761C71.0233 19.7336 71.0562 19.6959 71.086 19.6628C71.1644 19.5747 71.1659 19.5747 71.2036 19.5747C71.2506 19.5747 71.3086 19.5747 71.3462 19.8312C71.5077 21.1275 72.359 21.8717 73.6806 21.8717C74.3453 21.8717 75.0383 21.6939 75.5791 21.384C75.7328 21.2959 75.83 21.126 75.83 20.9403C75.83 20.7956 75.7688 20.6556 75.6622 20.558C75.5556 20.4621 75.4145 20.4149 75.2718 20.4259L75.2687 20.4243Z" fill="white"></path><path d="M80.1538 14.5401L83.8238 14.4772C87.6334 14.3875 89.6997 13.9171 89.6997 11.6925C89.6997 8.91255 87.2932 6.89404 83.9775 6.89404C81.9959 6.89404 80.1459 7.59258 78.7695 8.86221C77.2644 10.2514 76.468 12.1771 76.468 14.4284C76.468 19.3355 80.1992 21.9015 83.8834 21.9015C86.6771 21.9015 88.6932 20.344 89.5712 19.0098C89.7185 18.7864 89.6652 18.4828 89.4504 18.3176L89.4207 18.2956C89.209 18.1319 88.9033 18.1587 88.7277 18.3569C87.8498 19.3434 86.7163 19.8232 85.263 19.8232C82.5399 19.8232 80.3952 18.165 79.6646 15.4951C79.6113 15.0625 79.6411 14.7982 79.7571 14.6676C79.8324 14.5811 79.9625 14.5401 80.1553 14.5401H80.1538ZM79.7117 13.3822C79.7117 13.3822 79.6976 13.3728 79.6913 13.3681C79.6819 13.3618 79.6709 13.3555 79.6615 13.3492C79.6458 13.3366 79.6317 13.324 79.6176 13.3098C79.5988 13.291 79.5831 13.2689 79.5674 13.2453C79.4608 13.0754 79.4216 12.7765 79.4451 12.3376C79.4577 12.2054 79.4749 12.0764 79.4922 11.949C79.4969 11.9096 79.5016 11.8672 79.5063 11.8278C79.522 11.7208 79.5439 11.6186 79.5643 11.5147C79.5753 11.4597 79.5831 11.4015 79.5957 11.3464C79.6145 11.2614 79.638 11.1812 79.6584 11.0994C79.6756 11.0318 79.6913 10.9625 79.7101 10.8964C79.7305 10.8304 79.754 10.7674 79.7759 10.7029C79.801 10.6274 79.8245 10.5488 79.8528 10.4764C79.8716 10.4292 79.8935 10.3851 79.9123 10.3379C79.9484 10.253 79.9813 10.168 80.0205 10.0878C80.0362 10.0563 80.0534 10.028 80.0707 9.99654C80.1177 9.90686 80.1632 9.81561 80.2149 9.73065C80.2275 9.7102 80.2431 9.69132 80.2557 9.6693C80.3121 9.57805 80.3701 9.48837 80.4328 9.40499C80.4422 9.39397 80.4516 9.38296 80.461 9.37037C80.53 9.2807 80.6006 9.19417 80.6758 9.11236C80.6837 9.10449 80.6915 9.0982 80.6978 9.09033C80.8624 8.9157 81.0411 8.75995 81.2355 8.62622C81.2433 8.6215 81.2512 8.61678 81.259 8.61206C81.455 8.4799 81.6651 8.36663 81.8908 8.27538C81.894 8.27538 81.8971 8.2738 81.9002 8.27223C82.0147 8.22661 82.1307 8.1857 82.253 8.15109C82.3266 8.13064 82.4035 8.1149 82.4803 8.0976C82.5336 8.08658 82.5838 8.07085 82.6371 8.06141C82.7076 8.04883 82.7813 8.04253 82.8534 8.03309C83.0525 8.00792 83.2579 7.99061 83.4727 7.99061C85.5123 7.99061 86.7806 9.28699 86.7806 11.3732C86.7806 12.5673 86.1331 13.3681 82.9678 13.4011L80.2118 13.464C80.193 13.464 80.1757 13.464 80.1569 13.464C80.1381 13.464 80.1177 13.464 80.1005 13.464C80.0864 13.464 80.0738 13.4625 80.0613 13.4609C80.0409 13.4609 80.0205 13.4577 80.0017 13.4562C79.9923 13.4562 79.9829 13.453 79.9735 13.453C79.9531 13.4499 79.9327 13.4483 79.9139 13.4452C79.9045 13.4452 79.8967 13.442 79.8873 13.4404C79.87 13.4373 79.8528 13.4341 79.8371 13.4294C79.8277 13.4263 79.8198 13.4231 79.8104 13.42C79.7963 13.4153 79.7822 13.4121 79.7697 13.4058C79.7603 13.4027 79.7509 13.3964 79.7415 13.3932C79.732 13.3885 79.7211 13.3838 79.7117 13.3791V13.3822Z" fill="white"></path><path d="M106.115 20.4212C105.792 20.4558 105.545 20.3976 105.38 20.2497C105.181 20.0703 105.081 19.7415 105.081 19.2742V12.1945C105.081 8.28492 102.627 6.89258 100.33 6.89258C97.6732 6.89258 96.212 8.50676 95.7307 9.03852L95.6618 9.11404C95.5489 9.22731 95.483 9.24147 95.4611 9.23361C95.3827 9.20214 95.2369 8.91738 95.2369 8.07411C95.2369 7.62415 95.1146 7.29848 94.8716 7.1034C94.6396 6.91775 94.3229 6.87055 93.9278 6.96023L90.725 7.69023C90.5008 7.74215 90.344 7.9388 90.344 8.17008C90.344 8.30538 90.3973 8.43124 90.4961 8.52406C90.5933 8.61688 90.7281 8.66566 90.8629 8.65936C91.4524 8.6279 91.8302 8.71128 92.0513 8.9221C92.2864 9.1455 92.3821 9.54826 92.3821 10.3066V19.2113C92.3821 20.1741 92.0246 20.5077 90.7892 20.7012C90.5525 20.7374 90.3753 20.9466 90.3753 21.1858V21.2219C90.3753 21.4925 90.5948 21.7128 90.8645 21.7128H96.7843C97.0539 21.7128 97.275 21.4925 97.275 21.2219V21.1873C97.275 20.9466 97.0962 20.7374 96.8595 20.7012C95.6006 20.5093 95.2369 20.1757 95.2369 19.2113V12.8553C95.2369 10.5504 96.7937 8.81354 98.8568 8.81354C100.92 8.81354 102.226 10.3255 102.226 12.8553V19.5574C102.226 21.0929 102.98 21.8701 104.468 21.8701C105.15 21.8701 105.761 21.7128 106.393 21.3746C106.55 21.2912 106.647 21.1244 106.647 20.9435V20.9104C106.647 20.7704 106.587 20.6367 106.484 20.5423C106.384 20.451 106.25 20.4086 106.115 20.4212V20.4212Z" fill="white"></path><path d="M114.244 20.2465C113.899 20.4258 113.486 20.5171 113.015 20.5171C111.886 20.5171 111.339 19.6471 111.339 17.8583V8.8607C111.339 8.50514 111.463 8.37299 111.794 8.37299H114.288C114.564 8.37299 114.788 8.14801 114.788 7.87111V7.67918C114.788 7.40228 114.564 7.1773 114.288 7.1773H111.794C111.537 7.1773 111.339 7.1301 111.339 6.53226V4.55308C111.339 4.19438 111.049 3.90332 110.692 3.90332C110.399 3.90332 110.143 4.10313 110.071 4.38789C109.635 6.09489 108.68 6.98851 106.878 7.37868C106.642 7.42902 106.478 7.63198 106.478 7.86954C106.478 8.14644 106.702 8.37141 106.978 8.37141H107.967C108.353 8.37141 108.484 8.49413 108.484 8.85913V17.4807C108.484 20.3928 109.756 21.8701 112.263 21.8701C113.503 21.8701 114.321 21.4862 114.79 21.1637C115.019 21.0064 115.089 20.6949 114.95 20.4526C114.807 20.2056 114.497 20.1159 114.243 20.2465H114.244Z" fill="white"></path><path d="M14.4514 0C6.47005 0 0 4.88501 0 10.9106H28.9028C28.9028 4.88501 22.4328 0 14.4514 0Z" fill="white"></path><path d="M14.4514 11.5367C6.47005 11.5367 0 16.4202 0 22.4458H28.9028C28.9028 16.4202 22.4328 11.5352 14.4514 11.5352V11.5367Z" fill="white"></path><path d="M14.4514 23.0894C6.47005 23.0894 0 27.9744 0 34H28.9028C28.9028 27.9744 22.4328 23.0894 14.4514 23.0894V23.0894Z" fill="white"></path></g><defs><clipPath id="clip0_630_123"><rect width="116" height="34" fill="white"></rect></clipPath></defs></svg>