<svg fill="none" height="41" viewBox="0 0 128 41" width="128" xmlns="http://www.w3.org/2000/svg"><path d="m11.1567 8.54573h18.5756v-5.97984h-11.4666c-1.6938.00207-3.3332.60179-4.6324 1.69458-1.2991 1.09279-2.1756 2.60933-2.4766 4.28526zm-8.59659 8.54027h5.92867v-5.9798h-5.92867zm8.49419 8.5403h10.1946v-5.9771h-10.2054zm-8.49419 2.5632v10.1362c1.66317-.3071 3.16684-1.1902 4.24987-2.4959s1.67701-2.9515 1.6788-4.6517v-2.9804zm-1.27467 12.8105h-1.28544v-15.3737h8.48878v-5.9771h-8.48878v-11.10889h8.5777c.31205-2.36186 1.4662-4.52953 3.2481-6.10029 1.7818-1.570756 4.0702-2.43779429 6.4399-2.44002h14.0132v11.1089h-21.2354v5.9771h12.7439v11.109h-12.7439v2.9804c-.0029 2.604-1.033 5.1006-2.86438 6.9419-1.8314 1.8414-4.31447 2.8771-6.90445 2.88zm43.16076-6.8171c-1.4876 0-2.7703-1.1271-2.7703-3.1322 0-2.005 1.2827-3.0915 2.7298-3.0915.4966-.0285.989.1059 1.403.3829.4141.2771.7275.6818.893 1.1534h2.3257c-.3611-2.0538-1.9753-3.7255-4.6432-3.7255-2.8512 0-5.069 2.2109-5.069 5.2807 0 3.0293 2.2178 5.2998 5.1202 5.2998 2.6059 0 4.2471-1.7043 4.689-3.7039h-2.3175c-.1918.4671-.5203.8644-.9419 1.1393-.4217.2749-.9165.4143-1.4188.3997zm33.0011-11.5126h-2.3391v10.5291c0 1.8641 1.1399 2.9804 2.9643 2.9804.4925.0226.9845-.0538 1.4471-.2249v-1.9643c-.2668.0493-.5372.0764-.8084.0812-.8758 0-1.2639-.3685-1.2639-1.2463v-4.6387h2.0777v-2.108h-2.0777zm-4.9235-1.5471c-.4034.0078-.7878.174-1.0709.4632-.283.2891-.4423.6782-.4436 1.0839.0166.3988.1859.7756.4724 1.0519.2865.2762.6681.4305 1.065.4305.397 0 .7786-.1543 1.0651-.4305.2865-.2763.4557-.6531.4723-1.0519-.0014-.2045-.0429-.4066-.1221-.595-.0792-.1883-.1946-.3591-.3395-.5025-.1449-.1435-.3166-.2568-.5051-.3335-.1885-.0766-.3902-.1152-.5936-.1134zm-1.1615 14.9211h2.3418v-9.9655h-2.3418zm-5.6888-10.1904c-1.528 0-2.6679.7181-3.1557 1.577v-1.3548h-2.2879v13.8564h2.3418v-5.0126c.5067.756 1.5873 1.371 3.0129 1.371 2.8484 0 4.6593-2.2516 4.6593-5.2402 0-2.9885-1.6411-5.1968-4.5704-5.1968zm-.4473 8.3317c-1.5496 0-2.6679-1.2301-2.6679-3.1321 0-1.9021 1.1183-3.0916 2.6679-3.0916 1.5495 0 2.6651 1.2301 2.6651 3.0916 0 1.8614-1.0994 3.1321-2.6651 3.1321zm25.4016 1.8614h2.3418v-13.3767h-2.3418zm-5.6053-10.2743c-2.4415 0-4.1824 1.5579-4.2309 3.7255h2.2179c.1078-.9944.8084-1.7801 2.0319-1.7801 1.3043 0 1.8864.6746 1.8864 1.5146 0 .3468-.1617.634-.733.7153l-2.544.3902c-1.6896.2438-2.9912 1.2274-2.9912 3.0075 0 1.5769 1.2827 3.0075 3.3577 3.0075 1.617 0 2.5844-.8128 3.0533-1.5742v1.268h2.1774v-6.5488c-.0242-1.986-1.183-3.7255-4.2255-3.7255zm1.8864 6.1397c0 1.9454-1.1399 2.5794-2.4631 2.5794-.9351 0-1.4444-.6151-1.4444-1.2897 0-.8129.5901-1.2274 1.3231-1.3548l2.5844-.3901zm-32.287-6.1397c-2.4442 0-4.1824 1.5579-4.2309 3.7255h2.2179c.1078-.9944.8084-1.7801 2.0319-1.7801 1.3043 0 1.8729.6746 1.8729 1.5146 0 .3468-.1617.634-.733.7153l-2.5439.3902c-1.6897.2438-2.9913 1.2274-2.9913 3.0075 0 1.5769 1.2827 3.0075 3.3578 3.0075 1.6169 0 2.5843-.8128 3.0532-1.5742v1.268h2.1775v-6.5488c0-1.986-1.1588-3.7255-4.2121-3.7255zm1.8864 6.1397c0 1.9454-1.1399 2.5794-2.4631 2.5794-.9351 0-1.4444-.6151-1.4444-1.2897 0-.8129.5901-1.2274 1.3232-1.3548l2.5843-.3901zm-15.4684-12.946h2.3822v-7.8575h2.3203v-2.06733h-2.3203v-1.35474c0-1.2274.8354-1.51461 1.466-1.51461.2882-.00673.5758.02794.8543.10296v-2.02941c-.3975-.14678-.819-.21666-1.2423-.20592-2.0347 0-3.4602 1.35474-3.4602 3.58194v1.41165h-1.7301v2.06736h1.7301zm10.0652.3062c2.9644 0 5.1499-2.2299 5.1499-5.2998 0-3.0698-2.1774-5.28075-5.1499-5.28075-2.9724 0-5.1202 2.22995-5.1202 5.28075 0 3.0509 2.1748 5.2998 5.1256 5.2998zm0-8.4319c1.466 0 2.7676 1.0648 2.7676 3.1321 0 2.0674-1.3016 3.1728-2.7676 3.1728s-2.7676-1.1054-2.7676-3.1728c0-2.0673 1.3286-3.1321 2.773-3.1321zm10.006 8.4129c1.1615 0 2.3203-.4904 2.808-1.3926v1.1054h2.2395v-9.96818h-2.3607v5.89588c0 1.3086-.7115 2.2299-2.0751 2.2299-1.4255 0-1.9968-1.0432-1.9968-2.2706v-5.85518h-2.3607v6.28328c.0054 2.211 1.3905 3.9721 3.7512 3.9721zm12.903-6.1803v5.8931h2.3633v-6.3022c0-2.192-1.1614-3.95048-3.5841-3.95048-.5887-.01765-1.1713.12389-1.6871.40984-.5157.28596-.9456.70585-1.2449 1.21584v-1.33035h-2.2987v9.96825h2.3688v-5.7631c0-1.3087.7114-2.3519 2.0561-2.3519 1.4822 0 2.0319.97 2.0319 2.211zm8.2354 6.1397c1.404 0 2.4442-.6963 2.9105-1.5363v1.2897h2.2609v-13.36588h-2.3014v4.57358c-.3045-.63398-1.1803-1.43328-2.9104-1.43328-2.7892 0-4.7214 2.35458-4.7214 5.21848.0054 3.0021 1.9187 5.2537 4.7672 5.2537zm.2857-8.3723c1.5468 0 2.6059 1.1867 2.6059 3.0915s-1.078 3.1918-2.6275 3.1918c-1.6169 0-2.6652-1.2681-2.6652-3.1728 0-1.9048 1.1453-3.1105 2.6922-3.1105zm18.3248-5.24831h-2.3417v10.52911c0 1.8641 1.1399 2.9669 2.9647 2.9669.491.0224.982-.0541 1.444-.2249v-1.9644c-.267.0496-.537.0768-.808.0813-.876 0-1.262-.3685-1.262-1.2464v-4.6278h2.075v-2.10798h-2.075zm4.643-1.54712c-.407.00429-.795.17021-1.081.46157s-.445.6845-.444 1.09368c.017.39876.186.77564.472 1.05189.287.27625.669.4305 1.065.4305.397 0 .779-.15425 1.066-.4305.286-.27625.455-.65313.472-1.05189 0-.20447-.04-.40693-.118-.5958-.078-.18886-.192-.36044-.336-.50489s-.315-.25895-.503-.33695-.389-.11796-.593-.11761zm-1.158 14.92113h2.341v-9.96818h-2.341zm8.58-10.27435c-2.951 0-5.12 2.22995-5.12 5.28075 0 3.0509 2.177 5.2998 5.12 5.2998s5.15-2.2299 5.15-5.2998c0-3.0698-2.172-5.28075-5.145-5.28075zm0 8.45355c-1.444 0-2.768-1.1054-2.768-3.1728 0-2.0673 1.324-3.1321 2.768-3.1321s2.768 1.0648 2.768 3.1321c0 2.0674-1.297 3.1728-2.763 3.1728zm11.494-8.43188c-.589-.01765-1.172.12389-1.688.40984-.515.28596-.945.70585-1.244 1.21584v-1.33035h-2.302v9.96825h2.364v-5.7631c0-1.3087.711-2.3519 2.056-2.3519 1.485 0 2.034.9809 2.034 2.211v5.8931h2.361v-6.3022c.005-2.1866-1.153-3.95048-3.576-3.95048zm-31.5113-.02167c-2.4416 0-4.1825 1.55795-4.231 3.72555h2.2179c.1105-.9944.8085-1.7801 2.0319-1.7801 1.3043 0 1.8864.6746 1.8864 1.5146 0 .3468-.1644.634-.7357.7153l-2.5439.3901c-1.6897.2439-2.9913 1.2274-2.9913 3.0076 0 1.5769 1.2827 3.0075 3.3578 3.0075 1.6169 0 2.587-.8128 3.0532-1.5742v1.268h2.1802v-6.5488c-.0054-1.9861-1.1669-3.72555-4.2202-3.72555zm1.8863 6.13965c0 1.9455-1.1426 2.5795-2.4631 2.5795-.9378 0-1.4471-.6151-1.4471-1.2897 0-.8129.5902-1.2274 1.3232-1.3548l2.587-.3901z" fill="#fff"></path></svg>