<svg xmlns="http://www.w3.org/2000/svg" width="99" height="38" viewBox="0 0 99 38" fill="none"><g clip-path="url(#clip0_628_131)"><path d="M39.6227 31.5566L37.8125 37.1481H37.1599L35.3454 31.5566H34.7231L36.6682 37.7291H38.3042L40.2493 31.5566H39.6227Z" fill="white"></path><path d="M43.6738 31.5566V37.7291H48.086V37.1481H44.2961V34.9115H47.281V34.3305H44.2961V32.1376H48.086V31.5566H43.6738Z" fill="white"></path><path d="M55.644 31.5566V36.6588H55.6005L52.0803 31.5566H51.4146V37.7291H52.0368V32.6312H52.0803L55.6005 37.7291H56.2706V31.5566H55.644Z" fill="white"></path><path d="M59.5557 31.5566V32.1376H61.74V37.7291H62.3622V32.1376H64.5466V31.5566H59.5557Z" fill="white"></path><path d="M72.0223 35.4488V31.5566H72.6445V35.4488C72.6445 37.0127 71.6655 37.9999 70.2383 37.9999C68.8111 37.9999 67.832 37.017 67.832 35.4488V31.5566H68.4543V35.4488C68.4543 36.6588 69.2114 37.4189 70.2383 37.4189C71.2652 37.4189 72.0223 36.6588 72.0223 35.4488Z" fill="white"></path><path d="M79.35 35.0032C80.2855 35.0032 80.9078 34.3786 80.9078 33.5704C80.9078 32.7623 80.2855 32.1376 79.35 32.1376H77.2135V34.9989H79.35V35.0032ZM77.2135 35.5842V37.7291H76.5913V31.5566H79.3544C80.6902 31.5566 81.5387 32.4085 81.5387 33.5704C81.5387 35.1343 80.1593 35.4488 80.1593 35.4488L81.4082 37.7291H80.7381L79.5371 35.5842H77.2222H77.2135Z" fill="white"></path><path d="M85.2153 31.5566V37.7291H89.6275V37.1481H85.8419V34.9115H88.8269V34.3305H85.8419V32.1376H89.6275V31.5566H85.2153Z" fill="white"></path><path d="M92.9037 33.0332C92.9037 32.1377 93.7479 31.2903 95.0881 31.2903C96.4282 31.2903 97.094 32.0067 97.4029 32.9022L96.7807 33.0376C96.4674 32.3212 96.0236 31.8756 95.0881 31.8756C94.1525 31.8756 93.5303 32.4566 93.5303 33.0376C93.5303 34.6495 97.4073 33.8894 97.4073 36.126C97.4073 37.1089 96.5153 38.0044 95.0445 38.0044C93.6652 38.0044 92.8602 37.2006 92.5513 36.1697L93.1735 36.078C93.4868 36.838 94.0655 37.419 95.0445 37.419C96.1585 37.419 96.7807 36.7944 96.7807 36.1216C96.7807 34.5097 92.9037 35.2698 92.9037 33.0332" fill="white"></path><path d="M34.7231 25.1484V0.685791H38.4478V20.0112L53.9035 0.685791H58.2896L48.682 12.5327L59.0902 25.1484H54.5997L46.4542 15.2585L38.4478 25.1484H34.7231Z" fill="white"></path><path d="M59.7388 18.8537H60.7613C60.7613 18.8537 62.1276 24.3359 68.1019 24.3359C72.5402 24.3359 75.4425 21.0815 75.4425 17.3116C75.4425 13.5418 72.5402 10.2874 68.1019 10.2874C63.6636 10.2874 61.9579 13.3714 61.9579 13.3714H60.7613L61.7839 0.690186H75.2728V1.71237H62.7063L61.8535 11.8906H61.8883C61.8883 11.8906 64.0074 9.25209 68.1019 9.25209C73.0536 9.25209 76.465 13.0219 76.465 17.3073C76.465 21.5926 73.0493 25.3624 68.1019 25.3624C61.2748 25.3624 59.7388 18.8493 59.7388 18.8493" fill="white"></path><path d="M97.9774 12.6812C97.9774 5.31188 93.7088 1.02655 88.7571 1.02655C83.8053 1.02655 79.5411 5.31188 79.5411 12.6812C79.5411 20.0506 83.8097 24.3359 88.7571 24.3359C93.7045 24.3359 97.9774 20.0506 97.9774 12.6812ZM78.5186 12.6812C78.5186 4.79641 83.2962 0 88.7614 0C94.2266 0 99.0043 4.80078 99.0043 12.6812C99.0043 20.5617 94.2223 25.3625 88.7614 25.3625C83.3006 25.3625 78.5186 20.5617 78.5186 12.6812Z" fill="white"></path><path d="M3.68545 0.685791C3.46353 0.685791 3.26338 0.808104 3.1633 1.00468C-0.400389 7.94157 -1.1227 14.1053 1.87097 16.6258C6.18308 20.2602 16.5826 14.9615 25.0893 4.78327C26.0945 3.58199 27.0256 2.36323 27.8828 1.14883C28.0221 0.952258 27.8828 0.685791 27.6392 0.685791H3.68545V0.685791Z" fill="white"></path><path d="M3.68545 37.7291C3.46353 37.7291 3.26338 37.6067 3.1633 37.4102C-0.400389 30.4776 -1.1227 24.3139 1.87097 21.7891C6.18308 18.1502 16.5826 23.4534 25.0893 33.6316C26.0945 34.8329 27.0256 36.0516 27.8828 37.266C28.0221 37.4626 27.8828 37.7291 27.6392 37.7291H3.68545Z" fill="white"></path></g><defs><clipPath id="clip0_628_131"><rect width="99" height="38" fill="white"></rect></clipPath></defs></svg>