<svg fill="none" height="28" viewBox="0 0 165 28" width="165" xmlns="http://www.w3.org/2000/svg" xmlns:xlink="http://www.w3.org/1999/xlink"><clipPath id="a"><path d="m0 0h165v28h-165z"></path></clipPath><g clip-path="url(#a)"><path d="m14.8619 19.5232h3.6419v1.939h-6.0841v-1.6296l-4.40667-4.991-2.75772 1.9782v2.1224l.58993.581h2.50043v1.939h-8.244744v-1.939h2.534554l.5885-.581v-15.26l-.5885-.581h-2.63548v-1.9348h5.25958v13.5982l7.23692-5.383-.0825-.161h-2.52031v-1.939h7.75431v1.939h-1.8636l-6.11246 4.4086zm14.5448-15.34961c1.2367 0 2.1678-.889 2.1678-2.0692 0-1.180195-.9311-2.09999547-2.1678-2.09999547-1.1599 0-2.0683.92400047-2.0683 2.09999547-.0051.27041.0447.5391.1464.79031s.2534.47988.446.67262c.1926.19273.4224.34563.6759.44974.2534.10411.5254.15733.8.15653zm1.5765 14.76861v-11.6606h-8.4111v1.939h5.787l.5899.581v9.1364l-.5899.581h-5.787v1.939h14.4994v-1.9348h-5.4984zm24.4797 0v-6.7046c0-3.3852-1.9901-5.4054-5.3235-5.4054-2.1564 0-3.9646 1.19839-4.998 2.54799v-2.09859h-5.0265v1.939h2.4024l.5899.581v9.1364l-.5899.581h-2.4024v1.939h7.9846v-1.9348h-2.3696l-.5885-.581v-6.811c1.1898-2.2078 2.843-3.3278 4.9326-3.3278 2.2261 0 3.3548 1.2978 3.3548 3.8542v6.2846l-.59.581h-2.4023v1.939h7.9846v-1.939h-2.3611zm21.0924.581h2.1706v1.939h-4.5972v-2.2806c-.6125.8635-1.43 1.5666-2.3813 2.048-.9514.4814-2.0077.7266-3.0772.7142-4.1039 0-7.1971-3.2424-7.1971-7.5418s3.0932-7.5404 7.1971-7.5404c2.2431 0 4.2289 1.00799 5.4585 2.73279v-6.10259l-.3923-.3864h-3.9475v-1.939h6.374v17.9704zm-2.4266-6.9468c-1.1372-2.4822-2.9382-3.7408-5.3605-3.7408-2.9723 0-5.1288 2.3436-5.1288 5.5706s2.1565 5.5706 5.1288 5.5706c2.4166 0 4.2162-1.2698 5.3605-3.773zm26.1823 1.7976c0 4.2994-3.0927 7.5418-7.1966 7.5418-2.2431 0-4.229-1.008-5.4586-2.7328v2.2792h-4.5986v-1.939h2.1721l.3923-.3864v-15.645l-.3923-.3864h-2.435v-1.939h4.8615v8.4c1.2296-1.7248 3.2155-2.73281 5.4586-2.73281 4.1039-.0014 7.1966 3.24801 7.1966 7.54041zm-2.1645 0c0-3.22-2.1578-5.5706-5.1302-5.5706-2.4293 0-4.2318 1.2698-5.3605 3.78v3.5882c1.1287 2.5032 2.9312 3.78 5.3605 3.78 2.9724-.007 5.1302-2.3506 5.1302-5.5776zm12.2935-6.02.475-.28-1.246-1.7164-.408.2422c-2.226 1.3258-4.881 3.752-4.881 7.7784s2.655 6.4526 4.883 7.7784l.412.245 1.214-1.7234-.468-.28c-2.435-1.4546-3.838-3.6498-3.838-6.02s1.41-4.5654 3.857-6.0256zm6.704-1.75701-.408-.24219-1.246 1.7164.475.28c2.447 1.4602 3.851 3.6554 3.851 6.02s-1.397 4.5668-3.838 6.02l-.468.28 1.214 1.722.414-.245c2.226-1.3258 4.881-3.752 4.881-7.7784s-2.649-6.4484-4.875-7.7742zm24.032 12.92761h2.172v1.939h-4.599v-2.282c-.613.8635-1.43 1.5666-2.381 2.048-.952.4814-2.008.7266-3.078.7142-4.102 0-7.197-3.2424-7.197-7.5418s3.095-7.5404 7.197-7.5404c2.244 0 4.229 1.00799 5.459 2.73279v-6.10259l-.392-.3864h-3.948v-1.939h6.373v17.9704zm-2.427-6.9468c-1.137-2.4822-2.937-3.74081-5.36-3.74081-2.973 0-5.129 2.34361-5.129 5.57061s2.156 5.5706 5.129 5.5706c2.416 0 4.216-1.2698 5.36-3.773zm18.892-5.2962v1.939h2.684l.297.3556-4.858 9.506-4.857-9.506.297-.3556h2.685v-1.939h-7.491v1.939h1.931l6.291 11.949c-1.787 3.4566-2.654 4.9868-4.148 4.9868-.506 0-.907-.1288-1.137-.3528.769-.1862 1.264-.7672 1.264-1.5274 0-.9954-.819-1.7458-1.905-1.7458-1.16 0-2.036.945-2.036 2.1994 0 1.8634 1.639 3.2676 3.811 3.2676 2.559 0 4.006-2.394 5.922-6.0466l6.681-12.7302h1.931v-1.939z" fill="#fff"></path></g></svg>