<svg xmlns="http://www.w3.org/2000/svg" width="133" height="34" viewBox="0 0 133 34" fill="none"><g clip-path="url(#clip0_703_123)"><path d="M64.3028 7.94079L64.7085 7.65681C65.0569 7.38893 65.1041 7.23083 65.1041 7.09959C65.1012 7.02547 65.0828 6.95284 65.0506 6.88624C65.0188 6.81964 64.9732 6.76057 64.9176 6.71271C64.862 6.66486 64.7967 6.62933 64.7269 6.60829C64.657 6.58725 64.5834 6.58122 64.5111 6.59057H61.8745C61.4027 6.59057 61.1099 6.74059 60.928 7.07813L53.0898 21.8451L45.2779 7.07813C45.1119 6.74059 44.6242 6.59057 44.3315 6.59057H41.5475C41.4749 6.58079 41.4011 6.58653 41.3308 6.6074C41.2605 6.62822 41.1952 6.66375 41.1392 6.71161C41.0832 6.75951 41.0375 6.81875 41.0052 6.88552C40.9729 6.95233 40.9547 7.02522 40.9517 7.09959C40.9517 7.20941 40.9517 7.36747 41.3498 7.65681L41.7505 7.93812C42.5046 8.44982 42.5916 9.32051 42.5916 9.92865V24.0875C42.5916 25.0734 42.3281 25.6682 41.7505 26.0781L41.3498 26.362C41.0097 26.6112 40.9517 26.7451 40.9517 26.9487C40.9517 27.2622 41.2522 27.4283 41.5475 27.4283H45.0433C45.4126 27.4283 45.6681 27.2301 45.6681 26.9487C45.6681 26.7371 45.5732 26.6058 45.2411 26.3594L44.9011 26.1075C44.2892 25.6521 44.0282 25.0359 44.0282 24.0875V9.26424L51.9907 24.3233C52.0513 24.4572 52.1504 24.5693 52.2755 24.6448C52.4001 24.7204 52.5444 24.7558 52.6891 24.7466C52.8384 24.7569 52.9873 24.7219 53.1166 24.6461C53.2462 24.5702 53.3508 24.4569 53.4169 24.3206L61.3471 9.39285V24.0875C61.3471 25.269 60.9176 25.7164 60.4797 26.0754L60.1108 26.3594C59.739 26.6273 59.7126 26.7773 59.7126 26.9487C59.7126 27.2381 59.9447 27.4283 60.3057 27.4283H64.524C64.8193 27.4283 65.1175 27.2622 65.1175 26.9487C65.1175 26.7451 65.0594 26.6112 64.7193 26.3594L64.3187 26.0914C63.4776 25.5101 63.4776 24.559 63.4776 24.1009V9.92865C63.4776 8.73112 63.8808 8.26498 64.3157 7.94079" fill="white"></path><path d="M68.4711 9.27493C68.6492 9.28542 68.8278 9.2575 68.9947 9.19294C69.1616 9.12843 69.313 9.02872 69.4393 8.90042C69.5656 8.77215 69.6635 8.61817 69.727 8.4486C69.7906 8.27907 69.8182 8.09776 69.8078 7.91663C69.8182 7.73694 69.7906 7.55708 69.7266 7.3892C69.6626 7.22133 69.5639 7.06939 69.4372 6.94363C69.3105 6.81787 69.1587 6.72127 68.9918 6.66033C68.8253 6.59942 68.6476 6.57558 68.4711 6.5905C67.6091 6.5905 67.0737 7.09684 67.0737 7.91663C67.0737 8.73641 67.622 9.27493 68.4711 9.27493Z" fill="white"></path><path d="M70.6119 26.3861L70.3007 26.1021C69.7947 25.6842 69.6546 25.2502 69.6546 24.0874V12.388C69.6629 12.3217 69.6567 12.2543 69.6366 12.1907C69.6161 12.1271 69.5822 12.0689 69.537 12.0202C69.4919 11.9715 69.4367 11.9336 69.3756 11.9092C69.3141 11.8848 69.2485 11.8745 69.1828 11.8789C69.0121 11.8974 68.8449 11.9379 68.6847 11.9995L66.6754 12.7229C66.3777 12.8434 66.2062 13.0443 66.2062 13.2587C66.2062 13.473 66.2961 13.5962 66.5358 13.7489L66.9657 14.0784C67.4509 14.4401 67.5906 14.8152 67.5906 15.7529V24.0874C67.5906 25.1859 67.4509 25.6199 66.9444 26.1021L66.6332 26.3861C66.2907 26.7022 66.1982 26.8362 66.1982 27.013C66.1982 27.1148 66.1982 27.4282 66.7917 27.4282H70.4141C71.0071 27.4282 71.0071 27.1148 71.0071 27.013C71.0071 26.8255 70.8963 26.654 70.604 26.3861" fill="white"></path><path d="M83.8207 21.7003C83.8207 24.3151 81.6588 26.4422 78.9984 26.4422C75.9482 26.4422 73.8996 23.6882 73.8996 19.5919C73.8996 15.4956 75.9298 12.9934 79.1858 12.9934C81.8721 12.9934 83.8207 14.7348 83.8207 17.1379V21.7003ZM87.1637 25.6654C86.6204 25.5153 85.8772 25.309 85.8772 24.09V7.04852C85.8814 6.98192 85.8713 6.91511 85.8475 6.85298C85.8232 6.79084 85.786 6.73491 85.7379 6.68927C85.6898 6.64358 85.6325 6.60937 85.5702 6.58901C85.5074 6.5687 85.4414 6.56275 85.3761 6.57163C85.2155 6.59313 85.0578 6.63359 84.9069 6.6922L82.9294 7.41555C82.6053 7.53345 82.4602 7.70221 82.4602 7.95135C82.471 8.05292 82.5066 8.15021 82.563 8.2347C82.6195 8.31923 82.6956 8.38842 82.7843 8.43627L82.8106 8.45769L83.2406 8.7685C83.7496 9.14891 83.8337 9.60167 83.8337 10.475V13.422L83.6915 13.3015C82.5919 12.3691 81.0787 11.8762 79.3229 11.8762C74.8198 11.8762 71.7959 15.2518 71.7959 20.2778C71.7959 24.8107 74.3371 27.7389 78.2707 27.7389C81.2368 27.7389 82.9165 26.2038 83.8073 24.9152L83.8337 24.8777H84.0578V26.1583C84.0578 27.4978 84.5217 27.6452 84.87 27.6452C85.4209 27.6452 86.167 27.3772 87.1478 26.8066C87.5773 26.5575 87.7856 26.3244 87.7856 26.0967C87.7856 25.8689 87.5698 25.7645 87.1846 25.66" fill="white"></path><path d="M99.7683 21.7004C99.7683 24.3152 97.6064 26.4424 94.946 26.4424C91.8958 26.4424 89.8472 23.6883 89.8472 19.592C89.8472 15.4957 91.8719 12.9962 95.12 12.9962C97.8118 12.9935 99.7683 14.7349 99.7683 17.146V21.7004ZM103.111 25.6655C102.568 25.5154 101.825 25.3091 101.825 24.0902V7.04863C101.829 6.98178 101.819 6.91471 101.795 6.85232C101.77 6.78997 101.733 6.73387 101.685 6.68819C101.637 6.6425 101.579 6.60833 101.516 6.58818C101.453 6.56804 101.386 6.56243 101.321 6.57178C101.161 6.59371 101.005 6.63417 100.854 6.69231L98.8666 7.41566C98.542 7.53355 98.3998 7.70232 98.3998 7.9515C98.4107 8.05035 98.4446 8.14517 98.4989 8.22809C98.5529 8.31101 98.6257 8.37964 98.711 8.42835L98.7373 8.44977L99.1669 8.76057C99.6759 9.14099 99.7603 9.59374 99.7603 10.4671V13.4141L99.6177 13.2935C98.5157 12.3612 97.005 11.8683 95.2492 11.8683C90.746 11.8683 87.7222 15.2439 87.7222 20.2698C87.7222 24.8028 90.2638 27.731 94.1973 27.731C97.1635 27.731 98.8427 26.1959 99.734 24.9073L99.7603 24.8698H99.9845V26.1504C99.9845 27.4899 100.448 27.6372 100.796 27.6372C101.348 27.6372 102.094 27.3693 103.074 26.7987C103.504 26.5495 103.712 26.3165 103.712 26.0888C103.712 25.861 103.494 25.7565 103.111 25.6521" fill="white"></path><path d="M114.806 22.0754C114.806 23.0479 114.229 24.1329 113.264 24.9795C112.267 25.8596 110.997 26.3539 109.676 26.3753C107.68 26.3753 106.338 25.1644 106.338 23.364C106.338 20.685 108.922 19.3937 114.717 19.2195H114.806V22.0754ZM118.719 26.094C118.719 25.8261 118.505 25.7618 118.128 25.6573C117.601 25.5073 116.86 25.301 116.86 24.082V17.1057C116.86 13.6872 114.804 11.8789 110.913 11.8789C108.149 11.8789 105.057 13.1863 105.057 14.9357C105.045 15.0842 105.066 15.2335 105.117 15.3733C105.167 15.513 105.248 15.6399 105.351 15.7451C105.455 15.8503 105.58 15.9314 105.718 15.9827C105.855 16.034 106.002 16.0543 106.148 16.0422C106.892 16.0422 107.163 15.5599 107.509 14.9491C108.002 14.0784 108.616 12.9934 110.913 12.9934C113.285 12.9934 114.806 14.6437 114.806 17.1995V18.1345H114.722C107.58 18.3354 104.253 20.0875 104.253 23.6427C104.253 26.169 106.117 27.7389 109.117 27.7389C111.139 27.7389 113.362 26.6271 114.777 24.9072L114.804 24.8777H115.023V26.161C115.023 27.1871 115.286 27.6452 115.835 27.6452C116.602 27.6452 117.662 27.0585 118.081 26.8066C118.5 26.5548 118.719 26.3137 118.719 26.0967" fill="white"></path><path d="M123.694 25.526C124.097 26.4305 124.231 27.4354 124.077 28.4161C123.923 29.3968 123.489 30.31 122.829 31.0422C122.263 31.6584 121.664 31.9746 121.05 31.9746C120.83 31.9737 120.613 31.9255 120.413 31.8331C120.213 31.7408 120.035 31.6063 119.89 31.4387C119.797 31.324 119.681 31.2302 119.55 31.1633C119.419 31.0964 119.277 31.058 119.13 31.0503C118.474 31.0503 117.978 31.6343 117.978 32.4112C117.978 33.3677 118.795 33.9892 120.059 33.9892C123.499 33.9892 125.331 29.4348 126.107 27.471L130.981 15.3376C131.216 14.7375 131.509 13.998 132.104 13.5051L132.445 13.2211C132.737 12.9907 132.877 12.7978 132.877 12.629C132.877 12.3611 132.65 12.1816 132.284 12.1816H129.529C129.349 12.1816 128.933 12.2245 128.933 12.5969C128.939 12.713 128.972 12.8259 129.028 12.9268C129.085 13.0278 129.164 13.1138 129.26 13.1783C129.423 13.3049 129.555 13.4694 129.643 13.6581C129.732 13.8468 129.775 14.0543 129.768 14.2633C129.739 14.6639 129.645 15.0569 129.489 15.426L129.45 15.5385L125.758 25.1992L121.588 15.5385C121.398 15.1434 121.291 14.713 121.271 14.274C121.271 14.0724 121.312 13.873 121.392 13.6884C121.472 13.5039 121.589 13.3384 121.735 13.2024C121.913 13.0485 122.025 12.8304 122.046 12.5942C122.046 12.2218 121.63 12.179 121.45 12.179H117.862C117.496 12.179 117.266 12.3504 117.266 12.6264C117.266 12.9023 117.454 13.0336 117.691 13.2426L118.113 13.623C118.442 13.9257 118.727 14.1856 119.296 15.4662L123.694 25.526Z" fill="white"></path><path d="M24.3475 16.9986L25.3599 16.8058L33.459 15.7341L33.43 15.5385C33.4076 15.3938 33.3566 15.2552 33.2802 15.1309C33.2038 15.0066 33.1036 14.8993 32.9855 14.8153C32.8674 14.7312 32.7338 14.6723 32.5927 14.6419C32.4517 14.6115 32.306 14.6103 32.1645 14.6384L22.8737 16.3878C22.7378 16.4125 22.6156 16.4869 22.5301 16.597C22.4445 16.7071 22.4017 16.8452 22.4097 16.9852C22.4084 17.0013 22.4084 17.0174 22.4097 17.0335C22.4104 17.1709 22.4581 17.3038 22.5447 17.4094C22.6313 17.515 22.7513 17.5866 22.8842 17.6121L32.1645 19.3616C32.2297 19.3745 32.2959 19.3807 32.3622 19.3803C32.617 19.3785 32.8628 19.2848 33.0559 19.116C33.249 18.9472 33.3769 18.7143 33.4168 18.4587L33.4458 18.2792L25.3572 17.2076L24.3475 16.9986Z" fill="white"></path><path d="M11.0572 17.0174V16.9986C11.0648 16.856 11.0211 16.7154 10.9343 16.6031C10.8475 16.4907 10.7235 16.4142 10.5853 16.3878L1.28659 14.6384C1.14529 14.6116 1.00014 14.6139 0.85974 14.6452C0.719346 14.6765 0.586568 14.7361 0.469285 14.8206C0.351792 14.9036 0.252164 15.0101 0.17647 15.1335C0.100776 15.257 0.0506011 15.3948 0.0290009 15.5386L0 15.7207L8.08862 16.7924L9.11155 16.9879L8.09652 17.1835L0 18.2793L0.0290009 18.4587C0.0502623 18.603 0.100278 18.7413 0.175985 18.8652C0.251692 18.9891 0.351497 19.0961 0.469285 19.1794C0.649647 19.3094 0.865111 19.3795 1.08622 19.3803C1.15345 19.3807 1.22056 19.3744 1.28659 19.3616L10.5853 17.6095C10.7209 17.5851 10.8433 17.5117 10.93 17.4029C11.0168 17.2942 11.0619 17.1573 11.0572 17.0174Z" fill="white"></path><path d="M18.1652 0.0294697L17.9885 0L16.934 8.21937L16.7389 9.25884L16.5464 8.2274L15.4707 0L15.2915 0.0294697C15.1495 0.0510748 15.0134 0.101899 14.8914 0.17883C14.7695 0.255761 14.6643 0.357179 14.5823 0.476871C14.4992 0.59605 14.4405 0.730974 14.4097 0.873638C14.3789 1.01631 14.3766 1.16381 14.403 1.30738L16.1246 10.7565C16.1477 10.8957 16.2203 11.0215 16.3287 11.1099C16.4371 11.1984 16.5737 11.2432 16.7125 11.236H16.76C16.8951 11.2357 17.0257 11.1873 17.1293 11.0991C17.2329 11.011 17.3028 10.8888 17.3268 10.7538L19.0537 1.30738C19.0801 1.16381 19.0778 1.01631 19.047 0.873638C19.0162 0.730974 18.9575 0.59605 18.8744 0.476871C18.7924 0.357179 18.6872 0.255761 18.5652 0.17883C18.4432 0.101899 18.3072 0.0510748 18.1652 0.0294697Z" fill="white"></path><path d="M17.3293 23.2436C17.3041 23.1075 17.2317 22.9851 17.1253 22.8985C17.0189 22.812 16.8854 22.7672 16.7492 22.7721H16.7281C16.5878 22.7644 16.4495 22.8089 16.3389 22.897C16.2283 22.9853 16.153 23.1113 16.127 23.2517L14.4054 32.6847C14.379 32.8282 14.3813 32.9757 14.4121 33.1184C14.4429 33.261 14.5016 33.396 14.5847 33.5152C14.6657 33.636 14.7701 33.7388 14.8916 33.8171C15.0131 33.8954 15.1491 33.9477 15.2913 33.9706L15.4679 34.0001L16.5225 25.778L16.7149 24.7412L16.9074 25.77L17.962 34.0001L18.1386 33.9706C18.2806 33.949 18.4167 33.8982 18.5386 33.8212C18.6606 33.7443 18.7658 33.6429 18.8478 33.5232C18.9309 33.404 18.9896 33.2691 19.0204 33.1264C19.0512 32.9837 19.0535 32.8363 19.0271 32.6927L17.3293 23.2436Z" fill="white"></path><path d="M20.7621 12.9507C20.8701 13.0619 21.0169 13.1254 21.1707 13.1275C21.2876 13.1274 21.4017 13.091 21.4976 13.023L29.2936 7.57918C29.4121 7.49673 29.5133 7.39094 29.5909 7.26816C29.6686 7.14534 29.7213 7.00798 29.7458 6.86411C29.7704 6.72029 29.7664 6.5729 29.734 6.4307C29.7016 6.28845 29.6415 6.15428 29.5572 6.036L29.4518 5.88865L22.9767 10.9307L22.1146 11.5201L22.6972 10.6547L27.6827 4.07495L27.5377 3.96779C27.4213 3.88216 27.2893 3.82108 27.1493 3.78816C27.0094 3.75524 26.8643 3.75115 26.7228 3.77612C26.5812 3.80109 26.4461 3.85462 26.3252 3.93355C26.2043 4.01249 26.1003 4.11522 26.0191 4.23569L20.6487 12.1523C20.5677 12.2671 20.5312 12.4082 20.5463 12.5487C20.5614 12.689 20.6269 12.8189 20.7304 12.9132L20.7621 12.9507Z" fill="white"></path><path d="M12.718 21.0736C12.6238 20.9675 12.4949 20.8997 12.3552 20.883C12.2155 20.8662 12.0746 20.9016 11.9587 20.9826L4.16538 26.4264C4.04683 26.5089 3.94572 26.6146 3.86805 26.7374C3.79037 26.8602 3.73769 26.9976 3.71312 27.1414C3.68854 27.2853 3.69257 27.4327 3.72497 27.5749C3.75737 27.7171 3.81747 27.8513 3.90173 27.9696L4.00719 28.1169L10.4823 23.0695L11.3365 22.4748L10.7565 23.3401L5.79999 29.9252L5.94499 30.0324C6.12747 30.1691 6.34843 30.2424 6.57507 30.2414C6.63693 30.2412 6.69866 30.2359 6.75964 30.2253C6.90113 30.2006 7.03631 30.1473 7.15718 30.0686C7.27809 29.9899 7.38227 29.8874 7.46358 29.7672L12.8103 21.8452C12.889 21.7308 12.9244 21.5912 12.9098 21.4524C12.8953 21.3136 12.8318 21.1847 12.7312 21.0897L12.718 21.0736Z" fill="white"></path><path d="M4.16567 7.57379L11.959 13.0177C12.0573 13.087 12.1741 13.1244 12.2938 13.1248C12.3723 13.1255 12.4499 13.1089 12.5214 13.0761C12.5929 13.0432 12.6565 12.9949 12.7077 12.9346L12.742 12.9024C12.8378 12.8052 12.8971 12.677 12.9097 12.54C12.9222 12.403 12.8871 12.2658 12.8106 12.1523L7.45331 4.23301C7.37218 4.11253 7.26812 4.0098 7.14725 3.93087C7.02638 3.85194 6.8912 3.79841 6.74967 3.77343C6.60809 3.74846 6.46309 3.75256 6.32311 3.78547C6.18312 3.81839 6.05108 3.87947 5.93473 3.9651L5.78973 4.07226L10.7568 10.652L11.3368 11.52L10.4852 10.9307L4.01012 5.89402L3.90466 6.04137C3.8204 6.1596 3.76029 6.29382 3.7279 6.43602C3.6955 6.57827 3.69148 6.72562 3.71605 6.86948C3.74062 7.0133 3.7933 7.1507 3.87098 7.27349C3.94865 7.39631 4.04976 7.50205 4.16831 7.5845" fill="white"></path><path d="M29.2937 26.4263L21.4977 20.9825C21.3845 20.9028 21.2469 20.8672 21.1099 20.8819C20.973 20.8967 20.8459 20.9609 20.7516 21.0629L20.8122 21.1406L20.7384 21.0763C20.6334 21.1716 20.5664 21.3027 20.5499 21.4448C20.5334 21.5869 20.5685 21.7302 20.6487 21.8478L26.006 29.7671C26.0873 29.8874 26.1915 29.9898 26.3124 30.0685C26.4333 30.1472 26.5685 30.2005 26.7099 30.2253C26.7709 30.2359 26.8326 30.2413 26.8945 30.2414C27.1209 30.2406 27.3414 30.1675 27.5246 30.0324L27.6696 29.9252L22.7025 23.3481L22.1146 22.4747L22.9688 23.0641L29.4492 28.1303L29.5546 27.9829C29.6389 27.8647 29.699 27.7305 29.7314 27.5882C29.7638 27.446 29.7679 27.2986 29.7433 27.1548C29.7187 27.011 29.666 26.8736 29.5883 26.7508C29.5107 26.628 29.4096 26.5222 29.291 26.4398" fill="white"></path><path d="M23.7677 14.0384L24.6298 13.4624L31.7034 9.31255L31.6111 9.15717C31.5356 9.03333 31.4365 8.92597 31.3198 8.8414C31.203 8.75682 31.0708 8.69668 30.931 8.66455C30.7911 8.63238 30.6464 8.62881 30.5051 8.65406C30.3639 8.6793 30.229 8.73285 30.1083 8.81156L22.1753 14.0465C22.0574 14.121 21.9707 14.2371 21.9318 14.3725C21.8929 14.508 21.9045 14.6532 21.9644 14.7805L21.9802 14.8261C22.0321 14.9531 22.1263 15.0576 22.2462 15.1212C22.3662 15.1849 22.5044 15.2037 22.6367 15.1743L31.9011 13.1758C31.966 13.1618 32.0295 13.1421 32.091 13.1168C32.3271 13.0169 32.5202 12.8347 32.6358 12.6028C32.7513 12.3709 32.7816 12.1048 32.7211 11.8523L32.6789 11.6755L24.7827 13.8214L23.7677 14.0384Z" fill="white"></path><path d="M11.4947 19.2224V19.2036C11.4489 19.0686 11.356 18.9554 11.2335 18.8853C11.1111 18.8152 10.9677 18.7931 10.8303 18.8232L1.58166 20.8244C1.44112 20.8544 1.30795 20.9128 1.19007 20.9961C1.07219 21.0794 0.972022 21.186 0.895518 21.3095C0.819014 21.433 0.767742 21.5708 0.744759 21.7149C0.721773 21.8589 0.727545 22.0061 0.761723 22.1479L0.801272 22.322L8.68425 20.1788L9.70191 19.9618L8.83716 20.5378L1.75566 24.6876L1.84794 24.8403C1.98127 25.0599 2.18659 25.2247 2.42774 25.3056C2.66889 25.3864 2.93039 25.3782 3.16616 25.2824C3.22745 25.255 3.28651 25.2228 3.3428 25.186L11.2838 19.9537C11.3997 19.878 11.4849 19.7624 11.5236 19.6281C11.5624 19.4937 11.5521 19.3496 11.4947 19.2224Z" fill="white"></path><path d="M11.6637 0.763469L11.4897 0.803653L13.5989 8.81139L13.8124 9.84817L13.2456 8.96944L9.16436 1.78419L9.01145 1.87528C8.88958 1.95205 8.78393 2.05269 8.7007 2.17135C8.61747 2.29001 8.55833 2.42431 8.52667 2.56643C8.49501 2.70855 8.4915 2.85565 8.51634 2.99916C8.54119 3.14267 8.59388 3.27973 8.67134 3.40234L13.823 11.4663C13.8967 11.5857 14.011 11.6734 14.1441 11.7129C14.2772 11.7524 14.42 11.7409 14.5453 11.6806L14.5902 11.6646C14.7146 11.611 14.8167 11.5152 14.8793 11.3935C14.9418 11.2718 14.9607 11.1318 14.9329 10.9975L12.9661 1.60737C12.9367 1.46456 12.8792 1.32924 12.7972 1.20946C12.7152 1.08967 12.6103 0.987882 12.4888 0.910141C12.3673 0.8324 12.2316 0.780303 12.0899 0.756945C11.9481 0.733587 11.8032 0.739452 11.6637 0.774183" fill="white"></path><path d="M19.6365 22.5337C19.5626 22.4161 19.4494 22.3294 19.3177 22.2896C19.1861 22.2497 19.0447 22.2593 18.9194 22.3167H18.8983C18.7663 22.3652 18.6558 22.4604 18.5871 22.5848C18.5184 22.7093 18.496 22.8547 18.5239 22.9945L20.4934 32.4167C20.5228 32.5596 20.5803 32.6949 20.6623 32.8147C20.7443 32.9345 20.8492 33.0363 20.9707 33.114C21.0922 33.1917 21.2279 33.2438 21.3696 33.2672C21.5114 33.2905 21.6563 33.2847 21.7958 33.25L21.9671 33.2098L19.858 25.1994L19.6445 24.1652L20.2113 25.0413L24.2951 32.2292L24.4454 32.1354C24.5698 32.0593 24.6776 31.9582 24.7624 31.8385C24.8471 31.7187 24.9072 31.5827 24.9387 31.4387C24.9702 31.2946 24.9727 31.1456 24.9459 31.0006C24.9191 30.8556 24.8637 30.7176 24.7829 30.595L19.6365 22.5337Z" fill="white"></path><path d="M18.9298 11.6889C19.0546 11.7412 19.1935 11.7476 19.3224 11.707C19.4514 11.6664 19.5624 11.5814 19.6363 11.4665L24.7827 3.40522C24.8618 3.283 24.9158 3.14587 24.9417 3.00197C24.9675 2.85808 24.9646 2.71037 24.9332 2.56763C24.9017 2.42491 24.8422 2.29007 24.7584 2.17116C24.6746 2.05225 24.5681 1.95169 24.4452 1.87548L24.2949 1.78171L20.2163 8.96161L19.6442 9.84838L19.8551 8.8223L21.9669 0.803851L21.7956 0.763667C21.6554 0.729046 21.5097 0.723589 21.3674 0.747619C21.225 0.771648 21.089 0.824671 20.9673 0.903496C20.8457 0.982321 20.741 1.08533 20.6595 1.20632C20.578 1.32731 20.5214 1.4638 20.4932 1.60757L18.5237 10.9977C18.4925 11.1356 18.5123 11.2804 18.5794 11.4044C18.6465 11.5285 18.7562 11.623 18.8876 11.6701L18.9298 11.6889Z" fill="white"></path><path d="M14.5559 22.3245C14.4296 22.2631 14.2856 22.2505 14.1507 22.2889C14.0159 22.3273 13.8994 22.4143 13.823 22.5335L8.67134 30.5948C8.59388 30.7174 8.54119 30.8545 8.51634 30.998C8.4915 31.1415 8.49501 31.2886 8.52667 31.4307C8.55833 31.5728 8.61747 31.7071 8.7007 31.8258C8.78393 31.9445 8.88958 32.0451 9.01145 32.1219L9.16436 32.2156L13.2456 25.0357L13.8151 24.1517L13.6041 25.1831L11.495 33.2015L11.669 33.2417C11.8884 33.297 12.1194 33.2791 12.3281 33.1908C12.3855 33.1666 12.4411 33.1379 12.4942 33.1051C12.6162 33.0281 12.7215 32.9266 12.8035 32.8069C12.8856 32.6871 12.9427 32.5515 12.9714 32.4086L14.9382 23.0077C14.9684 22.8709 14.9488 22.7275 14.8828 22.6043C14.8169 22.4811 14.7091 22.3865 14.5796 22.3379L14.5559 22.3245Z" fill="white"></path><path d="M1.58194 13.1755L10.8332 15.1741C10.9497 15.2002 11.0713 15.1889 11.1812 15.142C11.2548 15.1135 11.3212 15.0686 11.3755 15.0107C11.4298 14.9527 11.4706 14.8832 11.495 14.8071C11.495 14.791 11.495 14.7776 11.5134 14.7642C11.5654 14.6375 11.572 14.4961 11.532 14.3649C11.492 14.2337 11.408 14.121 11.2946 14.0462L3.35099 8.81134C3.23023 8.73217 3.09514 8.67828 2.95364 8.65282C2.81214 8.62736 2.66706 8.6308 2.52689 8.66298C2.38671 8.69515 2.25426 8.75541 2.13728 8.84024C2.0203 8.92503 1.92113 9.03273 1.84558 9.15695L1.7533 9.31233L8.81896 13.4568L9.69166 14.0382L8.6819 13.8239L0.791003 11.6752L0.751459 11.8521C0.717389 11.9946 0.712019 12.1425 0.735666 12.2872C0.759313 12.4318 0.811489 12.5701 0.889064 12.6937C0.966634 12.8173 1.068 12.9237 1.18707 13.0065C1.30614 13.0893 1.44045 13.1468 1.58194 13.1755Z" fill="white"></path><path d="M31.885 20.8243L22.6364 18.823C22.5014 18.7936 22.3606 18.8145 22.2396 18.8819C22.1186 18.9493 22.0254 19.0587 21.9773 19.1901L22.0616 19.2383L21.9694 19.2061C21.9088 19.3349 21.8962 19.4817 21.934 19.6192C21.9718 19.7566 22.0574 19.8755 22.175 19.9536L30.108 25.1831C30.2548 25.2795 30.4223 25.3383 30.5963 25.3547C30.7703 25.371 30.9456 25.3443 31.1072 25.2769C31.3167 25.1884 31.493 25.0345 31.6108 24.8376L31.7031 24.6849L24.6374 20.5403L23.7674 19.9617L24.7772 20.176L32.6654 22.3192L32.7076 22.1451C32.7417 22.0032 32.7474 21.8557 32.7242 21.7116C32.7011 21.5674 32.6496 21.4294 32.5728 21.3059C32.4961 21.1824 32.3956 21.0758 32.2774 20.9926C32.1592 20.9094 32.0258 20.8513 31.885 20.8217" fill="white"></path></g><defs><clipPath id="clip0_703_123"><rect width="133" height="34" fill="white"></rect></clipPath></defs></svg>