<svg xmlns="http://www.w3.org/2000/svg" width="153" height="30" viewBox="0 0 153 30" fill="none"><g clip-path="url(#clip0_529_134)"><path d="M55.2287 16.3786V3.94176L53.0116 1.26849V1.04834H58.2816V1.26849L56.0539 3.95923V22.3017L54.407 22.9237L41.0833 4.88876V19.3943L43.3145 22.0676V22.3017H38.1331V22.0676L40.2758 19.3943V3.69365L38.1472 1.29994V1.04834H43.8812L55.2287 16.3786Z" fill="white"></path><path d="M63.7749 13.3978L68.9988 13.0868C68.9988 9.24284 68.2197 7.62141 66.5586 7.62141C64.7878 7.62141 63.8634 9.85088 63.7749 13.3978ZM73.1745 19.0099C71.7578 21.2533 69.6328 22.6581 66.3638 22.6581C61.919 22.6581 59.0432 19.5131 59.0432 15.0961C59.0432 10.2807 62.2307 6.97144 66.7959 6.97144C71.0636 6.97144 73.5251 10.0291 73.5251 13.8241H63.7501C63.7428 13.9568 63.7428 14.0898 63.7501 14.2225C63.8705 18.0489 65.6945 20.2329 68.7509 20.2329C70.2769 20.2505 71.7625 19.7496 72.9584 18.8142L73.1745 19.0099Z" fill="white"></path><path d="M85.8678 11.5318H85.6447C84.6282 10.0851 83.548 8.34137 82.6059 7.61802C82.3263 7.55318 82.0395 7.52383 81.7524 7.53066C79.9568 7.53066 79.1316 8.579 79.1316 9.7741C79.1316 11.2802 80.7643 12.0944 82.7688 13.0379C85.0745 14.1142 87.5607 15.3862 87.5607 18.0909C87.5607 21.1032 84.6282 22.6547 80.8528 22.6547C78.8163 22.6547 76.3903 22.0921 75.2251 21.4876L76.1814 17.4724H76.5001C77.1447 18.8457 78.402 21.194 79.6876 21.9908C80.1077 22.0624 80.5328 22.1021 80.9591 22.1096C83.1903 22.1096 83.8349 20.9739 83.8349 19.7613C83.8349 18.1643 82.1597 17.4584 80.1232 16.4835C77.9061 15.4351 75.3774 14.2086 75.3774 11.4165C75.3739 8.3868 78.0372 6.98901 81.8126 6.98901C83.4292 7.02582 85.0302 7.30992 86.5584 7.83118L85.8678 11.5318Z" fill="white"></path><path d="M99.7404 7.9184H95.1894V18.4647C95.1894 20.0302 95.9225 20.8444 97.24 20.8444C98.2215 20.8761 99.1903 20.6194 100.024 20.1071L100.173 20.3272C99.5514 21.0664 98.7709 21.6595 97.888 22.0633C97.0051 22.4671 96.0421 22.6715 95.069 22.6616C92.5686 22.6616 90.6065 21.2638 90.6065 18.4682V7.9184H88.6904V7.74018L90.8154 6.69184L94.9167 3.73901H95.1859V7.35928H99.7369V7.9184H99.7404Z" fill="white"></path><path d="M104.833 13.3978L110.057 13.0868C110.057 9.24284 109.278 7.62141 107.617 7.62141C105.846 7.62141 104.925 9.85088 104.833 13.3978ZM114.251 19.0099C112.834 21.2533 110.709 22.6581 107.44 22.6581C102.995 22.6581 100.119 19.5131 100.119 15.0961C100.119 10.2807 103.307 6.97144 107.872 6.97144C112.14 6.97144 114.601 10.0291 114.601 13.8241H104.833C104.826 13.9568 104.826 14.0898 104.833 14.2225C104.954 18.0489 106.778 20.2329 109.834 20.2329C111.36 20.2505 112.846 19.7496 114.042 18.8142L114.251 19.0099Z" fill="white"></path><path d="M127.288 11.8602H127.047C126.299 10.8573 125.354 9.61331 123.753 9.61331C123.369 9.62273 122.992 9.71489 122.648 9.88331C122.305 10.0517 122.002 10.2923 121.763 10.5883V20.219L123.664 22.0816V22.3017H115.327V22.0816L117.169 20.2365V9.91034L115.494 8.51255V8.27493L121.6 6.98896L121.766 7.1532V9.78454C122.591 8.23299 124.911 6.9051 126.767 6.9051C127.217 6.89168 127.664 6.96651 128.084 7.12525L127.288 11.8602Z" fill="white"></path><path d="M135.083 0L129.26 1.31392V1.56552L130.666 2.93885V20.2365L128.825 22.0815V22.3017H137.105V22.0815L135.263 20.219V0.160745L135.083 0Z" fill="white"></path><path d="M148.945 7.35579H153V7.59341L151.172 9.46994L145.47 22.8817C143.179 28.2003 141.146 29.7204 140.25 29.9999L138.245 26.6313L138.366 26.3377C139.34 26.1316 142.648 26.3377 143.965 24.7268L144.673 23.1158L138.812 9.435L137.211 7.58992V7.35229H145.488V7.58992L143.901 9.45247L147.135 17.8392L150.549 9.45247L148.948 7.58992V7.35229L148.945 7.35579Z" fill="white"></path><path d="M26.2615 22.5499H23.4281C23.2055 22.5499 22.992 22.4626 22.8346 22.3073C22.6772 22.152 22.5888 21.9414 22.5888 21.7217V13.8067C22.589 13.6892 22.5638 13.5729 22.515 13.4656C22.4661 13.3584 22.3947 13.2626 22.3054 13.1847L14.1667 6.08746C14.0139 5.95643 13.8183 5.88427 13.6159 5.88427C13.4135 5.88427 13.218 5.95643 13.0652 6.08746L4.78479 13.1253C4.69351 13.2035 4.62033 13.3001 4.57022 13.4086C4.52011 13.5172 4.49425 13.6351 4.49438 13.7543V21.7252C4.49438 21.9449 4.40594 22.1555 4.24853 22.3108C4.09111 22.4661 3.87762 22.5534 3.655 22.5534H0.839375C0.616434 22.5525 0.402943 22.4644 0.245631 22.3086C0.0883187 22.1527 -1.96791e-06 21.9417 0 21.7217L0 3.49457C0.000936725 3.27552 0.089784 3.06577 0.247096 2.91121C0.404408 2.75665 0.617371 2.66987 0.839375 2.66987H3.65146C3.87346 2.66987 4.08643 2.75665 4.24374 2.91121C4.40105 3.06577 4.4899 3.27552 4.49083 3.49457V5.71705C4.49093 5.8753 4.53698 6.03021 4.62353 6.16344C4.71008 6.29668 4.83351 6.40266 4.9792 6.46883C5.1249 6.53501 5.28676 6.55862 5.44562 6.53686C5.60449 6.5151 5.75371 6.44888 5.87563 6.34605L13.1042 0.199283C13.2569 0.0682539 13.4525 -0.00390625 13.6549 -0.00390625C13.8573 -0.00390625 14.0529 0.0682539 14.2056 0.199283L26.8175 11.1824C26.9068 11.2603 26.9782 11.356 27.0271 11.4633C27.0759 11.5705 27.1011 11.6868 27.1008 11.8044V21.7252C27.0999 21.9442 27.0111 22.154 26.8537 22.3086C26.6964 22.4631 26.4835 22.5499 26.2615 22.5499" fill="white"></path><path d="M18.7709 21.7216V15.9942C18.7706 15.8772 18.7453 15.7616 18.6964 15.6549C18.6476 15.5483 18.5764 15.4531 18.4876 15.3756L14.1455 11.5911C13.9928 11.4601 13.7972 11.3879 13.5948 11.3879C13.3924 11.3879 13.1968 11.4601 13.044 11.5911L8.6205 15.3407C8.52921 15.4189 8.45603 15.5155 8.40592 15.624C8.35582 15.7325 8.32995 15.8504 8.33008 15.9697V21.7251C8.33008 21.9447 8.41851 22.1554 8.57593 22.3107C8.73334 22.466 8.94684 22.5533 9.16945 22.5533H17.9351C18.1574 22.5514 18.37 22.463 18.5265 22.3072C18.6831 22.1514 18.7709 21.941 18.7709 21.7216" fill="white"></path></g><defs><clipPath id="clip0_529_134"><rect width="153" height="30" fill="white"></rect></clipPath></defs></svg>