<svg fill="none" height="28" viewBox="0 0 136 28" width="136" xmlns="http://www.w3.org/2000/svg"><path d="m136 20.5314v2.4847h-5.801v-3.6326c0-1.6371-1.88-3.7052-4.654-3.589h-2.13v7.2216h-5.829v-23.0161h5.829v10.9898h2.74c3.617 0 4.054-3.17247 3.915-5.97198h5.757c.039 4.46081-.537 6.91648-5.018 8.41788 3.128 1.0026 5.191 2.6542 5.191 7.0957zm-52.7188-15.43609h-3.7472v4.84345h2.5477c2.1974 0 3.7855 1.97124 3.7855 4.09754.0293 1.0389-.3368 2.0497-1.023 2.8245-.6863.7747-1.6405 1.2546-2.6665 1.3409h-4.7211v-18.1677923h-5.7574v22.9821923h10.4497c4.4044 0 9.5957-3.3081 9.5957-8.786 0-5.47799-4.1262-9.13479-8.4634-9.13479zm-52.5126 8.96519c-.011-.5397.0858-1.0761.2846-1.5773.1989-.5012.4956-.9568.8726-1.3396.3771-.3829.8266-.6852 1.3219-.8888.4952-.2037 1.026-.30458 1.5607-.29666h4.63l-3.7568 6.24316h5.532l3.7519-5.8508v-5.25519h-11.0735c-2.354 0-4.6117.94404-6.2763 2.62444-1.6645 1.68039-2.5997 3.95955-2.5997 6.33595s.9352 4.6556 2.5997 6.336c1.6646 1.6804 3.9223 2.6244 6.2763 2.6244h11.0975v-4.8435h-10.1811c-1.0721-.0164-2.0953-.456-2.8503-1.2245-.7551-.7686-1.1821-1.8051-1.1895-2.8876zm22.7179 0c-.0104-.5399.087-1.0765.2864-1.5777.1993-.5011.4966-.9567.874-1.3395s.8272-.685 1.3227-.8886 1.0266-.30446 1.5615-.29656h4.6299l-3.7423 6.24316h5.5319l3.7471-5.8508v-5.25519h-11.0686c-2.3541 0-4.6117.94404-6.2763 2.62444-1.6646 1.68039-2.5997 3.95955-2.5997 6.33595s.9351 4.6556 2.5997 6.336 3.9222 2.6244 6.2763 2.6244h11.0974v-4.8435h-10.1954c-1.073-.0151-2.0974-.4542-2.8535-1.2229s-1.1837-1.8059-1.1911-2.8892zm-30.3992-6.05912c0-5.09046-4.7739-7.9820021-8.9528-7.9820021h-14.1345v23.0500221h5.5991v-18.06127h7.3263c2.4565 0 4.2125 1.51115 4.2125 4.1363 0 2.20377-1.4393 4.09277-4.1501 4.09277h-5.27765v4.7223h3.61755c2.9651.1211 5.0954 1.3804 5.1241 4.7127v5.2987l5.8918.0291v-6.9213c0-3.032-2.4229-4.8434-4.6971-5.4343 3.7327-1.3465 5.4408-4.2526 5.4408-7.64302zm81.4287-3.21121c-6.7165 0-10.5548 4.22349-10.5548 9.41563 0 5.1922 4.2701 9.406 10.5548 9.406 6.545 0 10.556-4.2138 10.556-9.406 0-5.19214-3.786-9.4011-10.556-9.4011zm0 14.23973c-.95.0058-1.88-.2734-2.673-.8021s-1.412-1.2831-1.78-2.1676c-.3672-.8845-.4663-1.8593-.2845-2.8007.1819-.9414.6365-1.8072 1.3065-2.4875.67-.6802 1.525-1.14442 2.456-1.33368.932-.18925 1.898-.09505 2.776.27067.878.36571 1.629.98651 2.158 1.78361.528.7971.811 1.7347.811 2.6939.003 1.282-.496 2.5133-1.39 3.424-.894.9106-2.11 1.4263-3.38 1.4339z" fill="#fff"></path></svg>