<svg xmlns="http://www.w3.org/2000/svg" width="119" height="35" viewBox="0 0 119 35" fill="none"><g clip-path="url(#clip0_628_195)"><path d="M44.7391 18.7037C44.7771 19.7951 45.3076 20.8112 46.2563 21.6765C47.205 22.5418 48.4578 22.9564 49.9387 22.9564C52.8608 22.9564 54.5698 21.4127 54.8722 19.4182C54.9863 17.273 53.6194 15.88 50.7353 15.2032L47.4331 14.3756C43.1061 13.2088 40.9426 10.9128 40.9426 7.41396C40.9426 5.26876 41.7773 3.50049 43.4846 2.10751C45.1919 0.716159 47.205 0 49.5569 0C51.9088 0 54.0359 0.71452 55.6292 2.10751C57.2622 3.50049 58.0588 5.34415 58.0588 7.67781H54.0359C54.0359 5.30646 52.2146 3.7627 49.4809 3.7627C47.0133 3.7627 44.9638 5.23107 44.9638 7.33858C44.9638 8.99377 46.1406 10.1229 48.4562 10.726L51.7964 11.5913C56.958 12.9466 59.2736 15.844 58.8554 19.646C58.6654 21.7158 57.7167 23.371 56.0854 24.6886C54.4541 25.9685 52.403 26.6077 49.937 26.6077C47.2794 26.6077 45.0795 25.8178 43.3325 24.274C41.5856 22.7303 40.7129 20.8489 40.7129 18.7037H44.7358H44.7391Z" fill="white"></path><path d="M73.585 13.5104C72.4843 12.532 71.2315 12.042 69.7902 12.042C68.2713 12.042 66.9822 12.532 65.9194 13.5464C64.8947 14.5248 64.3625 15.8047 64.3625 17.3861C64.3625 18.9676 64.8931 20.2836 65.9194 21.2996C66.9822 22.3157 68.273 22.8434 69.7902 22.8434C72.8264 22.8434 75.256 20.6982 75.256 17.3861C75.256 15.7686 74.6874 14.451 73.5867 13.5104M75.2956 26.2308V23.7087C74.1949 25.5146 71.6513 26.6077 69.3374 26.6077C66.8698 26.6077 64.7443 25.7424 62.961 24.0479C61.214 22.355 60.3413 20.1344 60.3413 17.4238C60.3413 14.7133 61.214 12.532 62.961 10.8375C64.7443 9.14459 66.8698 8.2793 69.3374 8.2793C71.6529 8.2793 74.1205 9.29536 75.2956 11.139V8.65458H79.1664V26.2291H75.2956V26.2308Z" fill="white"></path><path d="M90.1161 12.0436C88.5972 12.0436 87.3081 12.5713 86.2833 13.5874C85.2586 14.6035 84.7264 15.8834 84.7264 17.4632C84.7264 19.043 85.257 20.3606 86.2833 21.3766C87.3081 22.3927 88.5989 22.8827 90.1161 22.8827C91.521 22.8827 92.8102 22.3943 93.9126 21.4143C95.0133 20.3983 95.5819 19.0807 95.5819 17.4632C95.5819 14.1134 93.1903 12.0436 90.1161 12.0436M84.7644 28.4514C85.6751 30.2573 87.7626 31.3865 89.736 31.3865C93.6828 31.3865 95.6562 29.0905 95.6562 24.4625V23.5595C94.6315 25.4786 92.1259 26.6077 89.66 26.6077C87.194 26.6077 85.0669 25.7801 83.3216 24.0856C81.5762 22.3927 80.7019 20.2098 80.7019 17.4992C80.7019 14.7886 81.5746 12.5304 83.3216 10.8375C85.0685 9.14459 87.1924 8.2793 89.66 8.2793C92.1276 8.2793 94.5935 9.40844 95.6562 11.2521V8.65458H99.489V23.6333C99.489 31.198 96.2248 34.9984 89.7343 34.9984C86.28 34.9984 83.2059 33.1924 81.5366 30.0689L83.1315 29.2413L84.7644 28.4514V28.4514Z" fill="white"></path><path d="M115.167 15.9949C114.825 13.2843 112.814 11.6668 110.12 11.6668C107.426 11.6668 105.224 13.3236 104.882 15.9949H115.167ZM118.962 18.8169H104.88C105.222 21.5275 107.422 23.2204 110.308 23.2204C112.319 23.2204 114.217 22.3174 115.129 20.6982L118.317 22.0912C116.799 25.064 113.648 26.6078 110.12 26.6078C107.54 26.6078 105.376 25.7425 103.629 24.048C101.884 22.3551 101.01 20.1345 101.01 17.3879C101.01 14.6412 101.882 12.4583 103.629 10.8015C105.375 9.1086 107.538 8.28101 110.12 8.28101C112.701 8.28101 114.827 9.1086 116.496 10.8015C118.167 12.4583 119.002 14.6412 119.002 17.3879C119.002 18.1024 119.002 18.5547 118.964 18.8185" fill="white"></path><path d="M9.22746 6.10118H23.2348C25.028 6.10118 26.7172 5.45549 27.9948 4.28375L31.173 1.36503C31.3945 1.16182 31.4573 0.870111 31.34 0.602985C31.2226 0.334221 30.9565 0.168701 30.6458 0.168701H9.12168C7.32842 0.168701 5.63928 0.814391 4.36333 1.98614L0 5.99466V12.0861L4.58315 7.87601C5.82769 6.73212 7.47717 6.10118 9.22746 6.10118" fill="white"></path><path d="M27.5303 8.58891C26.299 9.7328 24.6677 10.3637 22.9372 10.3637H9.02086C7.24743 10.3637 5.57647 11.0094 4.3154 12.1812L0 16.1897V22.2811L4.46581 18.1317C5.69713 16.9878 7.32842 16.3569 9.05888 16.3569H22.9753C24.7487 16.3569 26.4197 15.7112 27.6807 14.5394L31.9945 10.5309V4.43945L27.5287 8.58891H27.5303Z" fill="white"></path><path d="M22.7192 20.6194H8.6375C6.83598 20.6194 5.13692 21.2651 3.85271 22.4369L0.657893 25.3572C0.436421 25.5604 0.371962 25.8522 0.489309 26.1193C0.608309 26.3864 0.874407 26.5536 1.18843 26.5536H22.8249C24.6265 26.5536 26.3272 25.9079 27.6097 24.7361L31.9962 20.7276V14.6345L27.3883 18.8446C26.1371 19.9885 24.4794 20.6194 22.7192 20.6194" fill="white"></path></g><defs><clipPath id="clip0_628_195"><rect width="119" height="35" fill="white"></rect></clipPath></defs></svg>