<svg fill="none" height="39" viewBox="0 0 136 39" width="136" xmlns="http://www.w3.org/2000/svg"><path clip-rule="evenodd" d="m0 19.4895c0-10.78916 8.77009-19.5592426 19.4891-19.48908195 3.8546 0 7.6226 1.14301195 10.8275 3.28450195 3.205 2.14149 5.703 5.18527 7.178 8.74648 1.4751 3.5611 1.8611 7.4797 1.1091 11.2602s-2.6082 7.2532-5.3338 9.9788-6.1982 4.5817-9.9787 5.3337-7.6991.366-11.2603-1.109c-3.56113-1.4751-6.60491-3.9731-8.7464-7.178-2.14149-3.205-3.2845-6.973-3.2845-10.8276zm10.4591 5.4569c1.5906 1.3109 3.5908 2.0218 5.6519 2.0087 2.1257.0285 4.1862-.7337 5.7817-2.1386.9965-.8592 2.0629-1.9996 2.3981-2.3581.0582-.0622.0943-.1009.1043-.1105.1962-.2133.3485-.4631.4482-.7353.0997-.2721.1447-.5612.1327-.8507-.0121-.2896-.0811-.5739-.203-.8368-.122-.2629-.2945-.4992-.5078-.6955-.2133-.1962-.4631-.3485-.7352-.4481-.2722-.0997-.5613-.1448-.8508-.1327-.2896.0121-.5739.081-.8368.203s-.4992.2945-.6954.5078c0 0-1.2032 1.2992-2.1776 2.175-1.6579 1.4629-4.2876 1.2343-5.6181.0649-.4882-.4044-.8895-.9034-1.1798-1.467-.2903-.5635-.4635-1.1801-.5092-1.8123-.0364-.5799.0454-1.1611.2407-1.7083.1952-.5473.4996-1.0491.8948-1.475 1.6891-1.8839 4.9373-4.971 4.971-5.0022.4229-.4052.6674-.9618.6798-1.54731.0124-.58552-.2083-1.15199-.6135-1.5748s-.9618-.66732-1.5473-.67975c-.5856-.01243-1.152.20825-1.5748.61349-.1612.12992-3.3782 3.24817-5.19713 5.22827-.7899.8653-1.39795 1.8805-1.78808 2.9853-.39013 1.1047-.5544 2.2766-.48305 3.4461.0848 1.218.41296 2.4067.96506 3.4958.55211 1.089 1.31696 2.0563 2.2493 2.8446zm13.9434 6.9096c.7114-.6895 3.4234-3.3178 5.026-5.0646.8016-.8576 1.4173-1.8715 1.8086-2.9782.3912-1.1067.5496-2.2824.4651-3.4532-.0866-1.216-.416-2.4024-.9685-3.4891s-1.317-2.0518-2.2485-2.8383c-3.1494-2.7285-8.3153-2.6636-11.4336.1299-.8741.7804-1.7084 1.6043-2.4998 2.4686-.3743.4341-.5651.9968-.5318 1.569.0333.5723.288 1.1091.7102 1.4968.4221.3877.9786.5959 1.5516.5805s1.1175-.2533 1.5182-.6632c0 0 1.2006-1.2992 2.175-2.1776 1.6579-1.4603 4.2876-1.2005 5.6207-.0649.4876.4055.8885.9051 1.1787 1.469s.4638 1.1805.5103 1.8129c.0363.5809-.0458 1.1631-.2415 1.7112-.1956.5481-.5007 1.0507-.8966 1.4773-1.5066 1.6804-4.2536 4.3159-4.8517 4.8897-.0725.0695-.1134.1088-.1168.1125-.2092.2003-.3769.44-.4934.7052s-.1796.5508-.1856.8404c-.0061.2896.0451.5776.1504.8475.1054.2698.263.5162.4637.7251.2046.2164.4517.3881.7258.5043.2741.1163.5693.1746.8671.1713.5673-.0084 1.1111-.228 1.5253-.6158.0155-.0155.0751-.0732.1711-.1663zm57.5504-20.5571c-3.0221 0-5.8805 1.4604-5.8805 3.3781 0 2.3699 2.9233 2.3049 2.9233 2.3049.3249-1.2993 1.3643-1.9489 2.7285-1.9489 2.11 0 2.8896 1.0394 2.8896 2.5336h-1.0394c-6.0079 0-8.2816 2.4036-8.2816 5.1659 0 2.6635 2.2088 4.4487 5.1321 4.4487 2.0139 0 3.9628-.7458 4.3526-2.175.1158.5923.4361 1.1251.9049 1.5051.4689.38 1.0564.5831 1.6599.5737 1.2031 0 1.7878-.4235 1.8189-.5534v-9.2898c-.0311-3.7991-2.5647-5.9429-7.2083-5.9429zm2.6297 9.9056c0 1.593-1.2031 2.6635-2.7596 2.6635-1.1382 0-1.8528-.5846-1.8528-1.5253 0-1.5279 2.0451-2.1776 3.6042-2.2088h1.0394v1.0706zm-39.1081 2.8273c0-1.1382 1.398-2.3387 1.528-2.2088.9744.8757 2.8584 1.754 4.4487 1.754 1.4292 0 2.0788-.4235 2.0788-1.2031 0-.7675-.7784-.9088-1.8934-1.1112-.2517-.0457-.5204-.0945-.8013-.1543-2.5024-.5197-5.036-1.5929-5.036-4.7112 0-3.1182 2.2738-5.0333 6.4003-5.0333 3.929 0 5.6518 1.3642 5.6518 2.8895 0 1.2993-1.5591 2.4375-1.6579 2.3387-1.0856-.9956-2.4907-1.5715-3.9628-1.6241-1.3304 0-2.0138.4236-2.0138 1.1694 0 .6712.7026.7915 1.7437.9698h.0001l.0002.0001h.0001c.3212.055.6745.1155 1.0493.1994 2.9571.6497 5.1971 1.9489 5.1971 4.7112 0 3.2794-2.24 5.1321-6.7874 5.1321-4.3526 0-5.9455-1.5279-5.9455-3.1182zm14.292.7457v-11.0048c0-1.463.6834-2.1776 1.9489-2.1776h.6834c1.3305 0 2.0451.7146 2.0451 2.1776v3.508h4.8073v-3.508c0-1.463.6808-2.1776 1.9489-2.1776h.6808c1.3331 0 2.0165.7146 2.0165 2.1776v11.0048c0 1.4292-.6834 2.1776-2.0165 2.1776h-.6808c-1.2681 0-1.9489-.7484-1.9489-2.1776v-3.573h-4.8073v3.573c0 1.4292-.6808 2.1776-2.0451 2.1776h-.6834c-1.2993 0-1.9489-.7484-1.9489-2.1776zm30.7589.0002v.1948c0 .9095.6834 1.8528 2.4036 1.884h8.739c1.364 0 2.045-.5509 2.045-1.8502v-.1949c0-1.333-.715-1.8527-2.045-1.8527h-5.166l5.816-6.5224c.745-.7795 1.234-1.333 1.234-2.6635v-.2338c0-.9095-.684-1.819-2.373-1.819h-8.4111c-1.3642 0-2.0476.5197-2.0476 1.819v.1948c0 1.3331.7146 1.819 2.0476 1.819h4.7086l-5.7168 6.5302-.0114.0123c-.7726.837-1.2229 1.3248-1.2229 2.6824zm14.8796-10.1007c0-1.9177 2.856-3.3781 5.878-3.3781 4.643 0 7.179 2.1438 7.211 5.9429v9.2898c-.032.1299-.616.5534-1.819.5534-.604.0094-1.191-.1937-1.66-.5737s-.789-.9128-.905-1.5051c-.39 1.4292-2.339 2.175-4.353 2.175-2.923 0-5.132-1.7852-5.132-4.4487 0-2.7623 2.274-5.1659 8.282-5.1659h1.039c0-1.4942-.779-2.5336-2.889-2.5336-1.365 0-2.404.6496-2.729 1.9489 0 0-2.923.065-2.923-2.3049zm5.748 9.191c1.559 0 2.762-1.0705 2.762-2.6635h-.003v-1.0706h-1.005c-1.559.0312-3.604.6809-3.604 2.2088 0 .9407.714 1.5253 1.85 1.5253zm9.03.9095v-10.945c0-1.4942.748-2.2426 2.078-2.2426h1.334c1.234 0 1.655.2937 2.078 1.2681l2.435 6.0416 2.469-6.0416c.455-1.0394.943-1.2681 1.98-1.2681h1.299c1.398 0 2.144.7484 2.144 2.2426v10.945c0 1.4292-.486 2.1776-1.819 2.1776h-.746c-1.268 0-1.819-.7484-1.819-2.1776v-6.4625l-1.59 4.4487c-.014.0432-.028.0863-.041.129-.168.5345-.317 1.0091-1.942 1.0091-1.519 0-1.674-.4151-1.857-.9061-.028-.076-.057-.1537-.092-.232l-1.559-4.2538v6.3014c0 1.4292-.455 2.175-1.819 2.175h-.746c-1.268-.0312-1.787-.7796-1.787-2.2088z" fill="#fff" fill-rule="evenodd"></path></svg>