<svg fill="none" height="27" viewBox="0 0 118 27" width="118" xmlns="http://www.w3.org/2000/svg"><path d="m36.85 4.228a4.871 4.871 0 0 0 -1.224-2.161 4.71 4.71 0 0 0 -2.112-1.251c-2.924-.816-14.693-.816-14.693-.816s-11.771.025-14.693.84a4.71 4.71 0 0 0 -2.113 1.252 4.87 4.87 0 0 0 -1.222 2.16c-.885 5.318-1.233 13.418.024 18.521a4.871 4.871 0 0 0 1.222 2.161 4.71 4.71 0 0 0 2.113 1.251c2.924.815 14.693.815 14.693.815s11.77 0 14.693-.816a4.71 4.71 0 0 0 2.113-1.25 4.87 4.87 0 0 0 1.222-2.162c.933-5.316 1.22-13.418-.024-18.544zm-21.776 15.058v-11.572l9.763 5.786zm39.56 5.266c-.749-.519-1.28-1.31-1.594-2.398-.315-1.088-.46-2.522-.46-4.327v-2.448c0-1.805.17-3.288.532-4.376.363-1.088.918-1.904 1.692-2.399a5.46 5.46 0 0 1 2.996-.766c1.209 0 2.2.247 2.924.766a4.473 4.473 0 0 1 1.62 2.399c.338 1.088.507 2.546.507 4.351v2.448c0 1.805-.169 3.24-.507 4.327-.339 1.088-.87 1.88-1.62 2.398-.749.52-1.764.767-3.02.767-1.305.025-2.32-.247-3.07-.742zm4.181-2.645c.218-.544.314-1.46.314-2.695v-5.267c0-1.212-.096-2.102-.314-2.646-.217-.543-.58-.84-1.087-.84-.508 0-.846.272-1.063.84-.218.57-.315 1.434-.315 2.646v5.267c0 1.236.097 2.15.29 2.695.065.241.207.454.405.602.197.148.438.223.683.213.507 0 .87-.271 1.087-.815zm52.973-4.03v.865l.097 2.448a2.5 2.5 0 0 0 .387 1.186 1.098 1.098 0 0 0 .918.37c.556.001.942-.221 1.136-.666.193-.445.314-1.187.338-2.2l3.214.197c.023.197.031.395.024.593 0 1.558-.41 2.72-1.256 3.487-.846.766-2.006 1.162-3.529 1.162-1.836 0-3.117-.594-3.842-1.756s-1.112-2.992-1.112-5.44v-2.991c.082-4.203.805-7.282 5.051-7.294 1.281 0 2.248.247 2.924.717.677.47 1.16 1.211 1.45 2.225s.411 2.399.411 4.179v2.893h-6.211v.024zm.484-7.121a2.38 2.38 0 0 0 -.387 1.162c-.073.543-.097 2.472-.097 2.472v1.212h2.707v-1.212c0 1.212-.024-1.904-.097-2.472-.072-.57-.193-.965-.386-1.187a1.087 1.087 0 0 0 -.87-.346 1.106 1.106 0 0 0 -.87.37zm-66.676 6.799-4.228-15.626h3.698s1.728 7.837 2.32 11.521h.096c.672-3.91 2.369-11.52 2.369-11.52h3.697l-4.277 15.6v7.492h-3.65v-7.467h-.024zm29.244-9.396v16.888h-2.9l-.314-2.077h-.073c-.797 1.558-1.982 2.349-3.552 2.349-2.845 0-3.161-2.473-3.19-4.55v-12.609h3.721v12.388c0 .741.073 1.285.242 1.607.343.687 1.232.512 1.716.173.279-.193.504-.457.652-.767v-13.401h3.698zm10.1-3.164h-3.697v20.052h-3.625v-20.052h-3.698v-3.066h10.996v3.066zm21.243 5.86c-.218-1.064-.58-1.83-1.088-2.325-.507-.494-1.184-.717-2.078-.717a3.345 3.345 0 0 0 -1.909.594 4.033 4.033 0 0 0 -1.378 1.557h-.024v-8.9h-3.577v23.958h3.07l.386-1.607h.073c.295.566.739 1.037 1.281 1.36a3.858 3.858 0 0 0 1.909.494c1.256 0 2.175-.593 2.779-1.78s.894-3.041.894-5.538v-2.67a23.186 23.186 0 0 0 -.338-4.427zm-3.408 6.898c.015.966-.034 1.933-.145 2.893-.097.692-.266 1.186-.507 1.483a1.172 1.172 0 0 1 -.943.445c-.302.006-.6-.074-.86-.231a1.655 1.655 0 0 1 -.614-.659v-9.593c.104-.437.331-.832.653-1.138.531-.61 1.449-.618 1.86 0 .218.297.339.816.435 1.533.097.717.121 1.731.121 3.066v2.2zm-8.869-9.594v16.888h-2.9l-.314-2.077h-.073c-.797 1.558-1.981 2.349-3.552 2.349-2.844 0-3.161-2.473-3.19-4.55v-12.609h3.722v12.388c0 .741.072 1.285.241 1.607.343.687 1.233.512 1.716.173.28-.193.504-.457.653-.767v-13.401h3.697z" fill="#fff"></path></svg>